<svg width="116" height="40" viewBox="0 0 116 40" fill="none" xmlns="http://www.w3.org/2000/svg">
<g clip-path="url(#clip0_969_7049)">
<path d="M53.6717 15.0346L53.6461 9.2431C53.6131 8.73411 53.3208 8.5102 52.8728 8.62185L47.4712 10.5887C47.1687 10.7175 46.7183 10.7526 46.7154 11.2561L46.7148 13.2307C46.7242 13.6338 46.9735 13.9945 47.6154 13.7622L49.6088 13.1491C49.6683 13.1307 49.7291 13.175 49.7294 13.2381L49.7039 15.3474L49.7086 27.4732C49.7089 27.7907 50.0041 28.0419 50.3216 28.0416L53.1106 27.6925C53.4285 27.6922 53.6858 27.4347 53.6854 27.1165L53.6717 15.0346Z" fill="#BEBEBE"/>
<path d="M67.998 14.042C67.96 15.4169 67.2917 16.4374 66.678 17.0364C66.0776 17.6205 65.7413 17.701 65.7372 18.0705C65.7293 18.7802 66.2654 18.3698 67.4558 19.8537C67.9932 20.6376 68.3087 21.5795 68.3077 22.6415C68.3056 24.3543 67.6892 25.7392 66.4358 26.7733C65.1953 27.7969 63.4506 28.74 61.4247 28.7377C59.5248 28.7357 58.0389 27.9331 56.826 26.9234C55.7806 25.9993 55.1187 25.0206 54.9437 23.4936C54.8905 23.0492 55.1407 22.8278 55.4805 22.8111L58.1281 22.8138C58.4931 22.8141 58.6881 22.9126 58.754 23.2791C58.835 23.7283 59.1666 24.2742 59.5352 24.5862C60.0131 24.9909 60.8022 25.2857 61.6403 25.2863C63.2811 25.2375 64.4185 24.3472 64.4851 22.7759C64.531 21.0578 63.7092 19.7312 61.5215 19.7463L61.2489 19.7461C60.3294 19.7449 59.5249 19.1327 59.5258 18.2531C59.5267 17.3333 60.2102 16.7329 61.1303 16.7338L61.3806 16.7253C62.8953 16.7535 64.1042 15.9823 64.148 14.2157C64.2335 11.8245 62.4394 11.5762 61.5494 11.5688C60.6594 11.5613 60.104 11.8596 59.6716 12.2104C59.4628 12.3927 59.127 12.7687 59.0477 13.1432C58.971 13.5078 58.8514 13.7541 58.3086 13.7506C57.7657 13.7471 56.1083 13.7522 55.7627 13.7466C55.1234 13.6781 55.181 13.2263 55.207 13.0111C55.3222 12.238 55.5861 11.5924 56.0182 10.9582C57.2935 9.27273 59.3391 8.51443 61.3591 8.50195C63.3689 8.50413 65.0389 8.93634 66.189 9.90804C67.4646 10.9734 68 12.3734 67.998 14.042Z" fill="#BEBEBE"/>
<path d="M57.9987 29.6679C62.8191 29.6627 67.4938 30.2815 71.9483 31.4463C72.5542 31.6051 72.9286 30.7968 72.4139 30.4399C68.3224 27.6002 63.3526 25.9381 57.9946 25.9444C52.6367 25.9498 47.6707 27.6233 43.5854 30.4721C43.0716 30.8307 43.4478 31.6372 44.0532 31.4777C48.505 30.3027 53.1786 29.6735 57.9987 29.6679Z" fill="#BEBEBE"/>
</g>
<defs>
<clipPath id="clip0_969_7049">
<rect width="30.29" height="23.9731" fill="white" transform="translate(42.8555 8.01367)"/>
</clipPath>
</defs>
</svg>
