<svg width="116" height="41" viewBox="0 0 116 41" fill="none" xmlns="http://www.w3.org/2000/svg">
<path d="M59.7802 15.3907C59.843 15.3824 59.853 15.3361 59.8728 15.303C60.4285 14.4083 61.2504 13.9188 62.2708 13.7418C62.7992 13.6472 63.3405 13.6528 63.8668 13.7584C65.0542 14.0015 65.7885 14.7374 66.1358 15.8785C66.277 16.3512 66.3472 16.8423 66.3442 17.3356V24.4999C66.3442 24.7314 66.3442 24.7347 66.1094 24.7347H63.5294C63.2846 24.7347 63.283 24.7347 63.283 24.485C63.283 22.3218 63.283 20.1592 63.283 17.9971C63.2895 17.7046 63.2567 17.4126 63.1854 17.1288C63.1267 16.8703 62.9895 16.6362 62.7926 16.4585C62.5958 16.2809 62.3488 16.1685 62.0856 16.1365C61.764 16.0793 61.434 16.0895 61.1165 16.1663C60.7469 16.2525 60.4156 16.4572 60.1731 16.7493C59.9307 17.0413 59.7904 17.4046 59.7736 17.7837C59.762 17.9326 59.7587 18.0847 59.7587 18.2336V24.4222C59.7587 24.738 59.7984 24.7397 59.4494 24.738H56.9902C56.9406 24.738 56.8893 24.738 56.8397 24.738C56.7388 24.738 56.6743 24.705 56.6859 24.5942C56.6859 24.5445 56.6859 24.4949 56.6859 24.4437V14.1238C56.6859 13.9171 56.6859 13.9138 56.8959 13.9122H59.5024C59.7521 13.9122 59.7537 13.9122 59.7554 14.1553C59.7554 14.4976 59.7554 14.8416 59.7554 15.1839C59.7467 15.2538 59.7552 15.3248 59.7802 15.3907V15.3907Z" fill="#BEBEBE"/>
<path d="M82.4784 23.2548C82.3842 23.2647 82.3775 23.3243 82.3544 23.3623C81.7276 24.3711 80.7932 24.8607 79.6339 24.9533C79.1082 25.0035 78.5778 24.9473 78.0743 24.7879C77.001 24.434 76.3593 23.6782 76.06 22.6082C75.9408 22.1471 75.8851 21.6719 75.8946 21.1958C75.8946 18.8573 75.8946 16.5188 75.8946 14.1803C75.8946 14.1555 75.8946 14.1307 75.8946 14.1059C75.8946 13.919 75.8946 13.9157 76.098 13.9141H78.7309C78.9674 13.9141 78.969 13.9141 78.969 14.1704V20.8121C78.9649 21.0378 78.9832 21.2632 79.0236 21.4852C79.1708 22.2394 79.6488 22.6429 80.4161 22.6661C80.6389 22.6778 80.8622 22.6543 81.0776 22.5966C81.807 22.3849 82.2353 21.8904 82.3792 21.1561C82.4158 20.9509 82.4318 20.7426 82.4272 20.5343C82.4272 18.4295 82.4272 16.3253 82.4272 14.2217C82.4272 13.9174 82.3759 13.9174 82.7182 13.9174H85.2734C85.4851 13.9174 85.4851 13.9174 85.4884 14.1224C85.4884 14.1638 85.4884 14.2051 85.4884 14.2465C85.4884 17.6368 85.4884 21.0271 85.4884 24.4175C85.4884 24.7565 85.5396 24.7482 85.1675 24.7482H82.7877C82.7364 24.7482 82.6868 24.7482 82.6372 24.7482C82.5198 24.7482 82.4718 24.7019 82.4718 24.5828C82.4718 24.224 82.4718 23.8651 82.4718 23.5045L82.4784 23.2548Z" fill="#BEBEBE"/>
<path d="M43.2545 17.6692C43.1855 17.7016 43.1086 17.7137 43.0329 17.7039H40.5952C40.3521 17.7039 40.3769 17.7221 40.3157 17.4856C40.2893 17.3798 40.2595 17.2756 40.2231 17.173C40.0976 16.7601 39.8194 16.4104 39.4451 16.1954C39.0709 15.9803 38.6288 15.9159 38.2088 16.0154C37.4033 16.1659 36.932 16.6885 36.6492 17.4194C36.4835 17.8666 36.3945 18.3385 36.3862 18.8153C36.3647 19.5512 36.3548 20.2839 36.5516 21.0049C36.6118 21.2396 36.7012 21.4657 36.8179 21.678C37.0765 22.1284 37.5014 22.4595 38.0014 22.6002C38.5014 22.7409 39.0366 22.68 39.4921 22.4305C40.0131 22.1378 40.2942 21.6681 40.4579 21.1075C40.496 20.9818 40.4728 20.8131 40.5671 20.7337C40.6614 20.6543 40.84 20.7023 40.9805 20.7006C41.6818 20.7006 42.3835 20.7006 43.0859 20.7006C43.329 20.7006 43.324 20.7006 43.3009 20.9305C43.2361 21.6308 43.0182 22.3084 42.6625 22.9151C42.1777 23.7376 41.4071 24.3528 40.4976 24.6433C39.1415 25.1117 37.6633 25.0847 36.3251 24.5672C34.9739 24.0513 34.1073 23.059 33.6508 21.6995C33.3521 20.7493 33.2398 19.7502 33.3201 18.7574C33.3514 18.004 33.5195 17.2626 33.8162 16.5694C34.5538 14.9156 35.8438 13.958 37.6299 13.6851C38.5325 13.5385 39.4569 13.6053 40.3289 13.8803C41.8968 14.3764 42.8312 15.4448 43.1652 17.0473C43.2119 17.2518 43.2417 17.4598 43.2545 17.6692Z" fill="#BEBEBE"/>
<path d="M31.9645 20.729C31.9249 22.1232 31.222 23.8365 29.4028 24.5543C28.6722 24.8503 27.8899 24.9979 27.1016 24.9882C26.3134 24.9785 25.5349 24.8119 24.8118 24.4981C23.6078 24.0019 22.814 23.0758 22.3674 21.852C21.9937 20.8282 21.9275 19.7665 21.997 18.6915C22.0338 17.9142 22.2196 17.1512 22.5444 16.444C23.3085 14.8381 24.5918 13.9335 26.3482 13.6821C27.2852 13.5363 28.2437 13.6197 29.1415 13.9252C30.658 14.4528 31.5379 15.5311 31.8521 17.089C31.8819 17.2362 31.8984 17.3867 31.9133 17.5355C31.9282 17.6843 31.9249 17.7009 31.7578 17.7009H29.8195C29.6194 17.7009 29.4177 17.7009 29.2176 17.7009C29.0869 17.7009 29.0207 17.6645 28.9959 17.5355C28.9704 17.4048 28.9339 17.2764 28.8868 17.1518C28.556 16.2273 27.7986 15.8635 26.8824 16.0107C26.1811 16.1231 25.7247 16.5564 25.4187 17.1799C25.2419 17.5436 25.13 17.9354 25.088 18.3376C24.9836 19.1759 25.0121 20.0253 25.1723 20.8547C25.2313 21.1411 25.3328 21.417 25.4733 21.6733C25.6255 21.9638 25.8528 22.2083 26.1314 22.3813C26.41 22.5544 26.7298 22.6497 27.0577 22.6574C28.2153 22.7334 28.8769 21.9958 29.1282 21.0697C29.1564 20.9572 29.1514 20.8101 29.2209 20.7389C29.3151 20.6463 29.4755 20.7042 29.6079 20.7042C30.3091 20.7042 31.0119 20.7042 31.7132 20.7042C31.7976 20.6888 31.8847 20.6974 31.9645 20.729V20.729Z" fill="#BEBEBE"/>
<path d="M71.9292 10.6475C71.9549 10.7456 71.9627 10.8475 71.9524 10.9485C71.9524 11.7996 71.9524 12.6513 71.9524 13.5036V13.6541C71.9524 13.9071 71.9524 13.9071 72.2186 13.9088H73.6475C73.722 13.9088 73.798 13.9088 73.8725 13.9088C74.0048 13.9005 74.0378 13.9634 74.0378 14.0891C74.0378 14.7142 74.0378 15.341 74.0378 15.9678C74.0378 16.1497 74.0378 16.153 73.8328 16.153C73.3366 16.153 72.8405 16.153 72.3543 16.153H72.1541C71.9573 16.153 71.9573 16.153 71.9507 16.3449C71.9507 16.3779 71.9507 16.411 71.9507 16.4441V21.1525C71.946 21.3365 71.9604 21.5205 71.9937 21.7016C72.0202 21.9025 72.115 22.0881 72.2623 22.2273C72.4096 22.3665 72.6004 22.4506 72.8024 22.4656C73.1676 22.5119 73.5383 22.4838 73.8923 22.3829C74.0891 22.3317 74.0941 22.3317 74.0941 22.5235C74.0941 23.185 74.0941 23.8466 74.0941 24.5081C74.0941 24.6603 74.0279 24.7066 73.8973 24.738C73.2214 24.8962 72.5252 24.9486 71.8333 24.8934C71.4833 24.8697 71.1371 24.8065 70.8013 24.7049C69.809 24.3956 69.2186 23.7209 68.992 22.7203C68.9216 22.4105 68.8855 22.0938 68.8845 21.776C68.8845 20.0064 68.8845 18.2368 68.8845 16.4672C68.8845 16.1365 68.916 16.1613 68.572 16.1596C68.3041 16.1596 68.0378 16.1596 67.7699 16.1596C67.6525 16.1596 67.6045 16.1199 67.6045 15.9942C67.6045 15.3509 67.6045 14.7092 67.6045 14.0659C67.6045 13.9468 67.6508 13.9005 67.7699 13.9005C68.0709 13.9005 68.3719 13.9005 68.6729 13.9005C68.8796 13.9005 68.8829 13.9005 68.8845 13.6921C68.8845 13.1662 68.8845 12.6403 68.8845 12.1144C68.8845 11.8895 68.8399 11.9044 69.0813 11.8051L71.6481 10.745C71.7407 10.7235 71.8267 10.6872 71.9292 10.6475Z" fill="#BEBEBE"/>
<path d="M65.8045 9.94958C65.7686 9.86922 65.756 9.7804 65.7682 9.69323V7.38946C65.7682 7.11493 65.7682 7.11493 66.0344 7.01736L70.895 5.21304C70.9855 5.19447 71.0678 5.14755 71.1298 5.07908C70.8156 4.9567 70.5146 4.83763 70.212 4.72351L66.0212 3.12592C65.7698 3.03 65.7698 3.02835 65.7682 2.77036V0.491395C65.7682 0.213554 65.7682 0.210246 66.0311 0.312783C68.9683 1.4914 71.9055 2.67002 74.8426 3.84864C74.9179 3.86781 74.9836 3.91391 75.0272 3.97821C75.0707 4.04252 75.0892 4.12057 75.0791 4.1976C75.0692 4.78139 75.0791 5.36685 75.0791 5.95065C75.0791 6.29464 75.0924 6.24833 74.7997 6.36575C73.0036 7.09012 71.2065 7.81229 69.4082 8.53225L66.0642 9.87846C65.9846 9.92266 65.8955 9.94705 65.8045 9.94958V9.94958Z" fill="#BEBEBE"/>
<path d="M90.8422 15.8359C90.9745 15.5961 91.082 15.391 91.2127 15.1975C91.4644 14.8162 91.7982 14.4961 92.1897 14.2606C92.5811 14.0251 93.0203 13.8802 93.4751 13.8364C93.6405 13.8165 93.8058 13.8099 93.9712 13.795C94.0671 13.7868 94.1118 13.8248 94.1085 13.9207C94.1085 13.9803 94.1085 14.0382 94.1085 14.096V16.4263C94.1085 16.7868 94.1085 16.7818 93.7579 16.7967C93.1975 16.801 92.6423 16.9034 92.1173 17.0994C91.7656 17.2277 91.4582 17.4545 91.2318 17.7527C91.0054 18.051 90.8696 18.408 90.8405 18.7813C90.8179 18.9718 90.8069 19.1634 90.8075 19.3552V24.4638C90.8075 24.5316 90.8075 24.5978 90.8075 24.6656C90.8075 24.7615 90.7645 24.8012 90.6719 24.7962H90.5412C89.6978 24.7962 88.8543 24.7962 88.0109 24.7962C87.738 24.7962 87.7363 24.7962 87.7363 24.5267V14.182C87.7363 13.9108 87.7363 13.9092 88.0076 13.9092H90.5412C90.8306 13.9092 90.8058 13.9092 90.8058 14.1638C90.8058 14.6214 90.8058 15.0806 90.8058 15.5415C90.7962 15.6411 90.8087 15.7416 90.8422 15.8359Z" fill="#BEBEBE"/>
<path d="M20.2983 17.4049C20.315 16.7165 20.1434 16.0366 19.8021 15.4385C19.3374 14.6579 18.6263 14.1998 17.7746 13.9501C16.7668 13.663 15.7083 13.6003 14.6737 13.7665C13.933 13.856 13.2246 14.122 12.608 14.5421C11.6786 15.1954 11.2271 16.1133 11.108 17.218C11.1645 17.2474 11.2285 17.2589 11.2916 17.2511H13.8484C13.9427 17.2594 14.0138 17.2345 14.0138 17.1204C14.0181 17.0789 14.0264 17.0379 14.0386 16.998C14.084 16.7365 14.2078 16.4949 14.3935 16.3053C14.5793 16.1157 14.8183 15.987 15.0788 15.9363C15.404 15.8573 15.7424 15.8488 16.0711 15.9115C16.3475 15.9469 16.6047 16.0716 16.8038 16.2665C17.0029 16.4614 17.1329 16.7159 17.1742 16.9914C17.2254 17.279 17.2454 17.5712 17.2338 17.863C17.2338 18.1094 17.2338 18.1094 16.9874 18.1111C16.9377 18.1111 16.8881 18.1111 16.8369 18.1111C16.069 18.0909 15.3006 18.1196 14.5364 18.1971C13.8795 18.2681 13.2377 18.4417 12.6345 18.7114C11.7977 19.1067 11.1775 19.7037 10.9063 20.6166C10.7542 21.1477 10.7125 21.7044 10.7839 22.2522C10.9162 23.4022 11.5143 24.2004 12.5783 24.647C13.1617 24.8806 13.7876 24.9894 14.4157 24.9661C14.9438 24.971 15.4665 24.8587 15.946 24.6373C16.4256 24.416 16.8501 24.0911 17.1891 23.6861C17.2288 23.6398 17.2503 23.567 17.3297 23.5604C17.3777 23.6117 17.3545 23.6712 17.3545 23.7258C17.3545 23.9937 17.3545 24.2616 17.3545 24.5279C17.3545 24.7329 17.3545 24.7363 17.5629 24.7379H20.0684C20.2999 24.7379 20.3016 24.7379 20.3016 24.4981C20.3027 22.1332 20.3016 19.7687 20.2983 17.4049ZM17.2305 20.8018H17.2205C17.2205 20.9771 17.2305 21.1524 17.2205 21.3277C17.2106 21.5501 17.149 21.7672 17.0404 21.9615C16.9319 22.1559 16.7795 22.3223 16.5954 22.4474C16.3188 22.6517 15.9994 22.7904 15.6613 22.8529C15.3231 22.9153 14.9752 22.9 14.6439 22.8079C14.4127 22.7602 14.2032 22.6385 14.0472 22.4613C13.8912 22.2841 13.797 22.061 13.7789 21.8255C13.7468 21.5934 13.758 21.3573 13.812 21.1293C13.8451 20.991 13.9062 20.8609 13.9915 20.7471C14.0769 20.6333 14.1846 20.5382 14.3082 20.4678C14.6443 20.2784 15.0208 20.1718 15.4063 20.1568C15.9554 20.1105 16.5061 20.1353 17.0601 20.1287C17.1875 20.1287 17.242 20.1701 17.2371 20.3024C17.2255 20.4678 17.2305 20.6348 17.2305 20.8018Z" fill="#BEBEBE"/>
<path d="M105.179 21.399C104.317 21.399 103.457 21.399 102.597 21.399C102.547 21.3945 102.497 21.4091 102.457 21.4397C102.417 21.4704 102.391 21.5149 102.382 21.5644C102.261 21.8783 102.059 22.1541 101.795 22.3629C101.532 22.5718 101.217 22.7061 100.884 22.7518C100.677 22.7843 100.467 22.7938 100.259 22.7799C99.8709 22.7828 99.4916 22.6669 99.1717 22.4479C98.8518 22.2288 98.6066 21.917 98.4692 21.5545C98.3193 21.1841 98.2229 20.7943 98.1831 20.3968C98.145 20.0892 98.1467 20.0875 98.4493 20.0875H104.992C105.21 20.0875 105.213 20.0875 105.213 19.8626C105.213 19.421 105.213 18.9778 105.213 18.5396C105.208 17.9963 105.133 17.4559 104.989 16.932C104.547 15.3824 103.565 14.3554 102.012 13.889C101.168 13.6373 100.279 13.5752 99.4085 13.7071C97.5546 13.9734 96.2415 14.9574 95.5088 16.684C95.2179 17.3967 95.0604 18.1569 95.0441 18.9265C94.9851 19.8115 95.0734 20.7001 95.3054 21.5561C95.7453 23.0446 96.6599 24.0964 98.1169 24.6206C99.4729 25.1108 100.955 25.126 102.321 24.6636C102.866 24.4945 103.371 24.2178 103.807 23.8499C104.243 23.4821 104.601 23.0305 104.86 22.5219C105.043 22.1812 105.174 21.815 105.25 21.4354C105.227 21.4219 105.203 21.4098 105.179 21.399V21.399ZM98.1136 18.0153C98.2244 17.3802 98.4129 16.7749 98.8876 16.2986C99.2097 15.9976 99.6212 15.8099 100.06 15.7639C100.498 15.718 100.94 15.8163 101.317 16.0439C101.755 16.3135 101.979 16.7402 102.096 17.2215C102.152 17.448 102.187 17.6796 102.199 17.9128C102.199 18.0054 102.177 18.0566 102.076 18.05C102.035 18.05 101.992 18.05 101.95 18.05H98.3485C98.2685 18.0631 98.1864 18.051 98.1136 18.0153V18.0153Z" fill="#BEBEBE"/>
<path d="M47.8559 20.0708C47.922 20.0708 47.9898 20.0708 48.056 20.0708H54.5968C54.8284 20.0708 54.83 20.0708 54.8317 19.8343C54.8317 19.4076 54.8317 18.9826 54.8317 18.5559C54.828 17.9969 54.7507 17.4409 54.6018 16.9021C54.1371 15.2913 53.0968 14.256 51.4761 13.8277C50.683 13.6137 49.8543 13.5653 49.0417 13.6854C47.0571 13.9699 45.7175 15.0548 45.0262 16.9352C44.8035 17.566 44.6813 18.2279 44.664 18.8966C44.6054 19.7871 44.6942 20.6812 44.927 21.5427C45.3636 23.003 46.2666 24.0416 47.7021 24.589C48.6075 24.9199 49.5759 25.042 50.5351 24.9463C51.3042 24.8965 52.0537 24.6822 52.733 24.3178C53.2487 24.0466 53.6994 23.6665 54.0538 23.2039C54.4082 22.7413 54.6578 22.2072 54.7854 21.6386C54.8383 21.4121 54.835 21.4055 54.62 21.4055C53.8113 21.4055 53.0009 21.4055 52.1905 21.4055C52.1341 21.3982 52.0771 21.4121 52.0303 21.4445C51.9836 21.4769 51.9505 21.5254 51.9375 21.5808C51.8241 21.8748 51.6368 22.1348 51.3938 22.3355C51.1508 22.5362 50.8602 22.671 50.5499 22.7268C50.1651 22.8095 49.7671 22.8095 49.3823 22.7268C48.9262 22.6348 48.5249 22.3661 48.266 21.9793C47.9055 21.4518 47.7831 20.8498 47.7368 20.2263C47.7252 20.1171 47.7583 20.0675 47.8559 20.0708ZM48.5389 16.267C49.2897 15.5344 50.6525 15.584 51.3008 16.3613C51.5946 16.7302 51.7678 17.1806 51.7969 17.6513C51.8416 18.1177 51.8829 18.0416 51.4562 18.0432C50.3294 18.0432 49.2037 18.0432 48.0791 18.0432C47.9826 18.053 47.8851 18.0452 47.7914 18.0201C47.8724 17.3701 48.0477 16.7516 48.5339 16.2737L48.5389 16.267Z" fill="#BEBEBE"/>
</svg>
