<svg width="116" height="40" viewBox="0 0 116 40" fill="none" xmlns="http://www.w3.org/2000/svg">
<path fill-rule="evenodd" clip-rule="evenodd" d="M52.375 8.9525V20C52.375 23.555 55.255 26.4237 58.7987 26.4237C62.3425 26.4237 65.2225 23.5437 65.2225 20C65.2225 16.4562 62.3537 13.5762 58.7987 13.5762C57.46 13.5762 56.2225 13.9925 55.1875 14.69V8.9525H52.375ZM48.1562 26.2212V25.31C47.1213 26.0188 45.8837 26.4237 44.545 26.4237C41.0012 26.4237 38.1213 23.5437 38.1213 20C38.1213 16.4562 40.99 13.5762 44.545 13.5762C48.0887 13.5762 50.9688 16.445 50.9688 20V26.2212H48.1562ZM44.5338 16.3887C42.5425 16.3887 40.9225 17.9975 40.9225 20C40.9225 21.9913 42.5425 23.6112 44.5338 23.6112C46.525 23.6112 48.145 22.0025 48.145 20C48.145 18.0087 46.5362 16.3887 44.5338 16.3887ZM27.0625 20C27.0625 17.9975 28.6825 16.3887 30.6737 16.3887C32.1812 16.3887 33.4637 17.3 34.015 18.5938H36.9512C36.31 15.725 33.745 13.5762 30.6737 13.5762C27.13 13.5762 24.25 16.445 24.25 20C24.25 23.555 27.13 26.4237 30.6625 26.4237C33.7337 26.4237 36.2987 24.275 36.94 21.4062H34.0037C33.4525 22.7 32.17 23.6112 30.6737 23.6112C28.6825 23.6112 27.0625 22.0025 27.0625 20ZM66.8425 26.2212V13.7675H69.655V26.2212H66.8425ZM77.89 8.75C78.5875 8.75 79.2513 8.89625 79.8475 9.16625L78.7225 11.7312C78.4637 11.63 78.1937 11.5625 77.9012 11.5625C76.7875 11.5625 75.8875 12.4625 75.8875 13.5762V13.7788H79.4987C80.5675 13.7788 81.6025 14.3975 82.0638 15.4437L85 22.025L88.6675 13.7675H91.75L85.225 28.3925C84.145 30.8225 81.2875 31.9137 78.8575 30.8337L80.005 28.2687C81.0175 28.7188 82.21 28.2575 82.66 27.245L83.4475 25.49L79.4875 16.5913H75.8762V26.2325H73.0637V16.5913H71.2525V13.7788H73.0637V13.5762C73.0637 10.91 75.2237 8.75 77.89 8.75ZM68.2487 11.9675C69.1375 11.9675 69.8575 11.2475 69.8575 10.3588C69.8575 9.47 69.1375 8.75 68.2487 8.75C67.36 8.75 66.64 9.47 66.64 10.3588C66.64 11.2475 67.36 11.9675 68.2487 11.9675ZM62.4107 20C62.4107 21.9944 60.7938 23.6112 58.7994 23.6112C56.805 23.6112 55.1881 21.9944 55.1881 20C55.1881 18.0055 56.805 16.3887 58.7994 16.3887C60.7938 16.3887 62.4107 18.0055 62.4107 20Z" fill="#BEBEBE"/>
</svg>
