<svg width="116" height="40" viewBox="0 0 116 40" fill="none" xmlns="http://www.w3.org/2000/svg">
<g clip-path="url(#clip0_916_6945)">
<path d="M58.0563 1C50.0282 1 43.1609 6.13819 40.467 13.2559L40.3545 13.5159H40.6471H42.6615H42.774L42.8303 13.4029C45.348 7.46071 51.2203 3.29515 58.0563 3.29515C61.6414 3.29515 64.9475 4.44592 67.6555 6.39304C67.5595 6.69152 67.5092 6.99019 67.5092 7.32014C67.5092 9.01851 68.8694 10.418 70.5589 10.418C70.8792 10.418 71.1879 10.3291 71.4817 10.2371C72.1826 11.2184 72.7939 12.2796 73.271 13.4029L73.3273 13.5159H73.4511H75.488H75.7805L75.668 13.2559C75.0717 11.6564 74.2424 10.129 73.2485 8.76733C73.4843 8.32971 73.6761 7.85108 73.6761 7.32014C73.6761 5.61063 72.2933 4.22226 70.5927 4.22226C70.0484 4.22226 69.5616 4.40276 69.1185 4.65189C66.0148 2.37595 62.193 1 58.0563 1ZM91.9518 12.2157V12.3853V15.5397H89.6449C89.0616 15.5397 88.502 15.6639 87.9794 15.8902C87.972 15.893 87.953 15.8874 87.9456 15.8902V15.9128C87.4394 16.1298 86.9828 16.4557 86.5952 16.8399H86.5615C86.1689 17.2263 85.8452 17.685 85.6162 18.208C85.3965 18.7282 85.2898 19.3083 85.2898 19.9152C85.2898 20.5088 85.3974 21.056 85.6162 21.5885C85.8482 22.1165 86.1622 22.611 86.5615 23.0131C86.9613 23.4129 87.4173 23.7086 87.9456 23.9402L87.9794 23.9628C88.5089 24.1838 89.0534 24.2907 89.6449 24.2907C90.2364 24.2907 90.7922 24.1837 91.3217 23.9628H91.3442V23.9402C91.873 23.7084 92.3181 23.4143 92.7058 23.0131C93.1058 22.6103 93.4101 22.1185 93.6286 21.5885C93.8613 21.055 94 20.51 94 19.9152V12.3853V12.2157H93.7974H92.1544H91.9518ZM26.3439 15.5397C25.7883 15.5397 25.2398 15.6715 24.7008 15.8902C24.1694 16.0983 23.685 16.4133 23.2604 16.8399C22.8346 17.2667 22.5222 17.7308 22.3151 18.2645C22.1083 18.7949 22 19.3473 22 19.9152C22 20.4725 22.1085 21.036 22.3151 21.5659C22.5222 22.0986 22.8348 22.5855 23.2604 23.0131C23.6843 23.438 24.1709 23.7427 24.7008 23.9628C25.2391 24.1687 25.7898 24.2907 26.3439 24.2907C26.8988 24.2907 27.4373 24.1692 27.9644 23.9628C28.5063 23.7429 29.0027 23.4387 29.4273 23.0131L29.9787 22.4365L30.125 22.2895L30.0125 22.1425L28.8534 20.9893L28.7071 20.8423L28.5721 20.9893L27.9869 21.5659C27.7691 21.7958 27.5272 21.9719 27.2441 22.086C26.9558 22.2015 26.6544 22.2556 26.3439 22.2556C25.6971 22.2556 25.1641 22.0314 24.7008 21.5659C24.4714 21.3354 24.2981 21.0714 24.1832 20.7858C24.0686 20.495 24.0144 20.2133 24.0144 19.9152C24.0144 19.6171 24.0688 19.3003 24.1832 19.0107C24.2977 18.726 24.4728 18.4833 24.7008 18.2645C24.9312 18.033 25.1708 17.8815 25.4548 17.767C25.7429 17.6513 26.0471 17.5974 26.3439 17.5974C26.6406 17.5974 26.9224 17.6513 27.2104 17.767C27.4951 17.8815 27.7563 18.0329 27.9869 18.2645L28.5721 18.8411L28.7071 18.9881L28.8534 18.8411L30.0125 17.6879L30.125 17.5409L29.9787 17.4278L29.4273 16.8399C29.002 16.4126 28.5077 16.0981 27.9644 15.8902C27.4366 15.671 26.9003 15.5397 26.3439 15.5397ZM35.0203 15.5397C34.4643 15.5397 33.895 15.6704 33.3548 15.8902C32.8231 16.0984 32.3613 16.4135 31.9369 16.8399C31.5123 17.2664 31.1987 17.7306 30.9916 18.2645C30.7861 18.7941 30.6765 19.3586 30.6765 19.9152C30.6765 20.4727 30.7866 21.0243 30.9916 21.5659C31.1987 22.0987 31.512 22.5872 31.9369 23.0131C32.3493 23.4274 32.8266 23.743 33.3548 23.9628C33.8846 24.1835 34.4403 24.2907 35.0203 24.2907C35.6003 24.2907 36.1344 24.1835 36.6633 23.9628C37.1936 23.743 37.6689 23.4273 38.0813 23.0131L38.6552 22.4365L38.8015 22.2895L38.6552 22.1425L37.5073 20.9893L37.361 20.8423L37.2485 20.9893L36.6633 21.5659C36.2925 21.9376 35.8633 22.1529 35.3692 22.233C34.9899 22.2879 34.649 22.1758 34.3001 22.0521L38.6552 17.6879L38.8015 17.5409L38.6552 17.4278L38.0813 16.8399C37.6561 16.4128 37.1844 16.0982 36.6408 15.8902C36.1118 15.6699 35.5763 15.5397 35.0203 15.5397ZM43.6743 15.5397C43.0817 15.5397 42.528 15.6562 41.9975 15.8902C41.4695 16.1115 40.9917 16.4381 40.5908 16.8399C40.2039 17.2297 39.899 17.6794 39.668 18.208C39.4472 18.7285 39.3529 19.3085 39.3529 19.9152V24.0872V24.2907H39.5217H41.1872H41.3673V24.0872V19.9152C41.3673 19.5903 41.4225 19.285 41.5361 19.0107C41.6631 18.7207 41.8263 18.4704 42.0313 18.2645C42.2488 18.0451 42.5005 17.8817 42.774 17.767C43.0594 17.6412 43.3533 17.5974 43.6743 17.5974C43.9953 17.5974 44.3128 17.6413 44.5971 17.767C44.8823 17.8817 45.1138 18.0481 45.3173 18.2645L45.3398 18.2871C45.555 18.4914 45.7197 18.7243 45.8349 19.0107C45.9591 19.284 46.0037 19.5927 46.0037 19.9152V24.0872V24.2907H46.2063H47.8493H48.0519V24.0872V19.9152C48.0519 19.3071 47.9142 18.7291 47.6805 18.208C47.461 17.6768 47.1591 17.2305 46.7577 16.8399C46.3569 16.4382 45.9017 16.1115 45.3735 15.8902C44.8536 15.6553 44.2783 15.5397 43.6743 15.5397ZM53.0147 15.5397C52.4582 15.5397 51.9106 15.6715 51.3717 15.8902C50.8393 16.0983 50.355 16.4132 49.9312 16.8399C49.5077 17.2664 49.1819 17.7304 48.9747 18.2645C48.769 18.7946 48.6596 19.347 48.6596 19.9152C48.6596 20.4727 48.7692 21.0364 48.9747 21.5659C49.1819 22.099 49.5078 22.5858 49.9312 23.0131C50.3543 23.4381 50.8408 23.7427 51.3717 23.9628C51.9099 24.1687 52.4598 24.2907 53.0147 24.2907C53.5687 24.2907 54.0969 24.1692 54.6239 23.9628C55.1659 23.7429 55.6398 23.4387 56.0644 23.0131H56.0981L56.6383 22.4365L56.7846 22.2895L56.6383 22.1425L55.513 20.9893L55.3779 20.8423L55.2316 20.9893L54.6577 21.5659C54.4389 21.796 54.1876 21.9719 53.9037 22.086C53.6175 22.2014 53.3253 22.2556 53.0147 22.2556C52.3679 22.2556 51.8339 22.0312 51.3717 21.5659C51.1409 21.3358 50.9681 21.0714 50.854 20.7858C50.7387 20.4953 50.674 20.2133 50.674 19.9152C50.674 19.6171 50.7388 19.3 50.854 19.0107C50.9677 18.7261 51.1085 18.483 51.3379 18.2645H51.3717C51.601 18.0332 51.8296 17.8815 52.1144 17.767C52.4013 17.6514 52.718 17.5974 53.0147 17.5974C53.3114 17.5974 53.5819 17.6513 53.87 17.767C54.1547 17.8815 54.4261 18.0326 54.6577 18.2645L55.2316 18.8411L55.3779 18.9881L55.513 18.8411L56.6383 17.6879L56.7846 17.5409L56.6383 17.4278L56.0981 16.8399C55.6728 16.4126 55.1673 16.0981 54.6239 15.8902C54.0962 15.671 53.5703 15.5397 53.0147 15.5397ZM61.6574 15.5397C61.0646 15.5397 60.5109 15.6563 59.9806 15.8902C59.4514 16.1106 59.0078 16.4369 58.6077 16.8399C58.2207 17.2287 57.8822 17.6792 57.6511 18.208C57.4314 18.7284 57.336 19.3094 57.336 19.9152C57.336 20.5095 57.4323 21.0559 57.6511 21.5885C57.8819 22.1158 58.222 22.6121 58.6077 23.0131C59.007 23.4143 59.4527 23.7078 59.9806 23.9402V23.9628C60.5103 24.1838 61.0661 24.2907 61.6574 24.2907C62.2611 24.2907 62.8376 24.1846 63.3567 23.9628V23.9402C63.8846 23.7078 64.3416 23.4142 64.7408 23.0131C65.1421 22.611 65.4781 22.1182 65.6974 21.5885C65.929 21.0553 66.035 20.5109 66.035 19.9152C66.035 19.308 65.9301 18.729 65.6974 18.208C65.4778 17.6768 65.1434 17.2298 64.7408 16.8399C64.3408 16.4371 63.8859 16.1106 63.3567 15.8902C62.837 15.6555 62.2625 15.5397 61.6574 15.5397ZM69.321 15.5397C68.9503 15.5397 68.5957 15.6306 68.2632 15.7772C67.9449 15.9112 67.6589 16.079 67.4192 16.3198C67.1795 16.5606 66.9903 16.8607 66.8453 17.1904C66.7127 17.5119 66.6427 17.8604 66.6427 18.2306C66.6427 18.6007 66.7138 18.9485 66.8453 19.2821V19.3047C66.9901 19.6202 67.1829 19.8901 67.4192 20.1413C67.6573 20.3795 67.9465 20.584 68.2632 20.7292C68.5947 20.8625 68.9526 20.9328 69.321 20.9328H72.6633C72.8696 20.9328 72.9985 20.9982 73.1247 21.125C73.2522 21.2538 73.3273 21.3959 73.3273 21.5885C73.3273 21.7953 73.25 21.9262 73.1247 22.0521C72.9986 22.1795 72.8696 22.2556 72.6633 22.2556H67.6555H67.4529V22.4365V24.0872V24.2907H67.6555H72.6633C73.0317 24.2907 73.3895 24.2215 73.7099 24.0872C74.0371 23.9415 74.3031 23.7503 74.5427 23.5106C74.7937 23.2573 74.9834 22.9616 75.1166 22.64C75.2625 22.3058 75.3529 21.961 75.3529 21.5885C75.3529 21.216 75.2637 20.8711 75.1166 20.5483C74.9835 20.213 74.7975 19.9198 74.5427 19.6778C74.3111 19.4452 74.0241 19.2671 73.7099 19.1351C73.6973 19.1298 73.6888 19.1067 73.6762 19.1012V19.1351C73.3618 18.9949 73.0243 18.8977 72.6633 18.8977H69.321C69.1299 18.8977 68.9862 18.856 68.8597 18.7281C68.7283 18.5863 68.6908 18.4221 68.6908 18.2306C68.6908 18.0391 68.7317 17.8956 68.8597 17.767C68.9862 17.6392 69.1299 17.5974 69.321 17.5974H74.3401H74.5427V17.3939V15.7432V15.5397H74.3401H69.321ZM75.9831 15.5397V15.7432V19.9152C75.9831 20.5097 76.0794 21.0568 76.2982 21.5885C76.5298 22.1163 76.8343 22.6111 77.221 23.0131C77.6203 23.4133 78.1117 23.7086 78.6389 23.9402V23.9628C79.1684 24.1837 79.7121 24.2907 80.3045 24.2907C80.9075 24.2907 81.4841 24.1845 82.0037 23.9628V23.9402C82.53 23.7086 82.9888 23.4131 83.3879 23.0131C83.7877 22.6104 84.0921 22.1196 84.3107 21.5885C84.5434 21.0559 84.6596 20.5109 84.6596 19.9152V15.7432V15.5397H84.4908H82.814H82.6452V15.7432V19.9152C82.6452 20.2381 82.5685 20.5222 82.4426 20.8084C82.3282 21.0957 82.1642 21.3481 81.9475 21.5659C81.7427 21.7725 81.5167 21.9584 81.2272 22.086C80.9408 22.2011 80.6268 22.2556 80.3045 22.2556C79.9909 22.2556 79.6931 22.1941 79.4154 22.086C79.4068 22.0823 79.3903 22.0897 79.3817 22.086C79.1121 21.9596 78.8762 21.7706 78.6615 21.5659C78.462 21.3508 78.3025 21.0925 78.1775 20.8084C78.063 20.5206 77.9975 20.2401 77.9975 19.9152V15.7432V15.5397H77.7949H76.1519H75.9831ZM34.9078 17.5861C35.189 17.5994 35.4586 17.6774 35.718 17.767C35.5729 17.9099 35.4298 18.0304 35.2229 18.2306C34.9139 18.541 34.5896 18.8678 34.2438 19.2142L33.2985 20.2092C33.1097 20.3995 32.9883 20.5097 32.8596 20.6388C32.7778 20.4025 32.6908 20.17 32.6908 19.9152C32.6908 19.2664 32.8918 18.7288 33.3548 18.2645C33.7246 17.893 34.1358 17.6668 34.6152 17.5974C34.7116 17.584 34.814 17.5817 34.9078 17.5861ZM61.6574 17.5974C61.9784 17.5974 62.2963 17.6406 62.5802 17.767C62.8651 17.8807 63.0969 18.0481 63.3004 18.2645H63.3341C63.5487 18.4691 63.7029 18.7238 63.818 19.0107C63.9414 19.2831 63.9981 19.5927 63.9981 19.9152C63.9981 20.2377 63.9425 20.5215 63.818 20.8084C63.7026 21.0953 63.5509 21.3698 63.3341 21.5885C63.1292 21.7944 62.8696 21.9584 62.5802 22.086C62.295 22.201 61.9807 22.2556 61.6574 22.2556C61.335 22.2556 61.0535 22.2009 60.7683 22.086C60.4781 21.958 60.2336 21.7741 60.0144 21.5659C59.8146 21.3497 59.6218 21.0921 59.4967 20.8084H59.5192C59.4046 20.5206 59.3504 20.2401 59.3504 19.9152C59.3504 19.5903 59.4057 19.2839 59.5192 19.0107H59.4967C59.6247 18.7196 59.8094 18.4704 60.0144 18.2645C60.2321 18.0458 60.4827 17.881 60.7683 17.767C61.0523 17.6406 61.3374 17.5974 61.6574 17.5974ZM89.6449 17.5974H91.9518V19.9152C91.9518 20.2371 91.9081 20.522 91.783 20.8084C91.6676 21.0962 91.4817 21.3494 91.2654 21.5659C91.0606 21.7725 90.8346 21.9584 90.5452 22.086C90.2739 22.2006 89.9676 22.2556 89.6449 22.2556C89.33 22.2556 89.033 22.1947 88.7558 22.086C88.7473 22.0823 88.7304 22.0897 88.7221 22.086C88.4412 21.9594 88.1929 21.7695 87.9794 21.5659C87.7803 21.3519 87.6092 21.0927 87.4842 20.8084C87.3697 20.5206 87.3154 20.2391 87.3154 19.9152C87.3154 19.5903 87.3708 19.2838 87.4842 19.0107C87.6122 18.7189 87.7743 18.4706 87.9794 18.2645C88.1974 18.0463 88.4364 17.8818 88.7221 17.767H88.7558C89.0401 17.6414 89.3229 17.5974 89.6449 17.5974ZM40.2082 26.5406L40.332 26.778C43.0202 33.9201 49.8615 39 57.91 39C65.9415 39 72.8541 33.8959 75.5555 26.778L75.6342 26.5406H75.3754H73.3048H73.1585L73.1247 26.665C70.585 32.5718 64.7214 36.7388 57.91 36.7388C51.0814 36.7388 45.2249 32.5926 42.6952 26.665L42.6615 26.5406H42.5152H40.5008H40.2082Z" fill="#BEBEBE"/>
<path d="M70.5922 5.66992C69.6938 5.66992 68.9492 6.385 68.9492 7.2867C68.9492 8.1884 69.6938 8.91479 70.5922 8.91479C71.4915 8.91479 72.2015 8.1884 72.2015 7.2867C72.2015 6.385 71.4916 5.66992 70.5922 5.66992Z" fill="#F2F2F2"/>
</g>
<defs>
<clipPath id="clip0_916_6945">
<rect width="72" height="38" fill="white" transform="translate(22 1)"/>
</clipPath>
</defs>
</svg>
