<svg width="32" height="32" viewBox="0 0 32 32" fill="none" xmlns="http://www.w3.org/2000/svg">
<g clip-path="url(#clip0_940_6316)">
<path d="M11.7625 23.0748C10.3375 27.3123 4.6875 27.3123 4.6875 27.3123C4.6875 27.3123 4.6875 21.6623 8.925 20.2373" stroke="#BEBEBE" stroke-linecap="round" stroke-linejoin="round"/>
<path d="M24.4879 13.1753L16.0004 21.6628L10.3379 16.0003L18.8254 7.51284C22.0379 4.30034 25.2504 4.33784 26.6254 4.53784C26.8376 4.56615 27.0345 4.66349 27.1859 4.81485C27.3372 4.96621 27.4346 5.16317 27.4629 5.37534C27.6629 6.75034 27.7004 9.96284 24.4879 13.1753Z" stroke="#BEBEBE" stroke-linecap="round" stroke-linejoin="round"/>
<path d="M23.075 14.5879V22.6629C23.0712 22.9267 22.9634 23.1783 22.775 23.3629L18.7375 27.4129C18.6094 27.5408 18.449 27.6316 18.2733 27.6755C18.0977 27.7194 17.9134 27.7148 17.7402 27.6622C17.567 27.6096 17.4113 27.511 17.2897 27.3768C17.1682 27.2426 17.0853 27.078 17.05 26.9004L16 21.6629" stroke="#BEBEBE" stroke-linecap="round" stroke-linejoin="round"/>
<path d="M17.4124 8.9248H9.33741C9.07364 8.92856 8.82204 9.03639 8.63741 9.2248L4.58741 13.2623C4.45946 13.3904 4.36869 13.5508 4.32478 13.7265C4.28087 13.9021 4.28547 14.0864 4.33808 14.2596C4.39069 14.4328 4.48934 14.5885 4.62351 14.7101C4.75768 14.8316 4.92234 14.9145 5.09991 14.9498L10.3374 15.9998" stroke="#BEBEBE" stroke-linecap="round" stroke-linejoin="round"/>
</g>
<defs>
<clipPath id="clip0_940_6316">
<rect width="32" height="32" fill="white"/>
</clipPath>
</defs>
</svg>
