<svg width="116" height="40" viewBox="0 0 116 40" fill="none" xmlns="http://www.w3.org/2000/svg">
<path d="M21.9231 11.4568C22.346 9.56764 22.7408 7.90407 24.1788 6.49427C25.1657 5.5356 26.4627 4.97168 27.8443 4.97168C27.8443 4.97168 28.38 4.97168 28.7184 5.02807L28.6056 5.73297C28.6056 5.73297 27.8725 5.62019 27.4213 5.73297C26.8292 5.87395 26.4909 6.12772 26.0679 6.52246C25.3066 7.28376 25.0529 8.15784 24.5735 10.2162L23.0509 17.0396H26.8574L26.6319 17.9419H22.8254L20.4287 28.5436C20.0058 30.4328 19.611 32.0963 18.173 33.5061C17.1862 34.4648 15.8891 35.0287 14.4793 35.0287H14L14.2538 34.2392C14.3947 34.2392 14.5639 34.2392 14.6767 34.211C15.438 34.0982 15.9455 33.8445 16.3685 33.2806C17.0734 32.3783 17.2426 31.8144 17.7501 29.7842L20.4005 17.9701H16.6786L16.9042 17.0678H20.6261L21.9231 11.4568Z" fill="#BEBEBE"/>
<path d="M73.6347 21.3816H68.221C68.5876 20 69.7154 17.8007 71.7174 17.8007C73.8885 17.7725 73.9448 19.9718 73.6347 21.3816ZM71.9147 16.6729C69.0669 16.6729 66.5293 18.5902 65.9372 21.6072C64.9221 26.7389 68.7286 27.6975 70.3357 27.6975C71.7174 27.6975 72.7888 27.2182 73.6065 26.5979L72.8734 25.752C72.2813 26.1185 71.6328 26.3723 70.8715 26.3723C68.221 26.3723 67.8545 24.1166 67.9955 22.5376H75.6084C76.3979 20 75.552 16.6729 71.9147 16.6729Z" fill="#BEBEBE"/>
<path d="M40.7303 8.97546C40.7303 8.97546 37.5442 22.6788 37.2622 24.3141C36.8393 26.8518 38.1645 27.2183 38.8694 27.3311C40.1664 27.5285 41.0123 27.3029 41.0123 27.3029L41.1533 26.457C41.1533 26.457 40.6739 26.6262 40.0818 26.5134C39.2641 26.3725 39.1514 25.8931 39.3487 24.5115C39.6025 22.9043 42.9578 8.94727 42.9578 8.94727H40.7303V8.97546Z" fill="#BEBEBE"/>
<path d="M80.205 8.97546C80.205 8.97546 77.0188 22.6788 76.7368 24.3141C76.3139 26.8518 77.6391 27.2183 78.344 27.3311C79.641 27.5285 80.4869 27.3029 80.4869 27.3029L80.6279 26.457C80.6279 26.457 80.1486 26.6262 79.5564 26.5134C78.7388 26.3725 78.626 25.8931 78.8233 24.5115C79.0771 22.9043 82.4324 8.94727 82.4324 8.94727H80.205V8.97546Z" fill="#BEBEBE"/>
<path d="M85.0822 8.97546C85.0822 8.97546 81.8961 22.6788 81.6141 24.3141C81.1912 26.8518 82.4882 27.2183 83.2213 27.3311C84.5183 27.5285 85.3642 27.3029 85.3642 27.3029L85.5052 26.457C85.5052 26.457 85.0258 26.6262 84.4337 26.5134C83.616 26.3725 83.5033 25.8931 83.7006 24.5115C83.9544 22.9043 87.3097 8.94727 87.3097 8.94727H85.0822V8.97546Z" fill="#BEBEBE"/>
<path d="M33.1165 22.8759C32.8628 23.7218 31.8477 26.7105 29.451 26.7105C26.6032 26.7105 27.9849 22.3965 28.2104 21.5507C28.436 20.733 29.4792 17.6878 31.7913 17.6878C34.5827 17.6878 33.3703 22.03 33.1165 22.8759ZM34.3854 16.9547L34.1316 18.0261H34.047C33.4831 16.9547 32.4398 16.6445 31.3684 16.6445C28.1258 16.6445 26.2649 19.3232 25.7292 21.889C24.9397 25.5545 26.0675 27.6692 29.1127 27.6692C30.4379 27.6692 31.453 27.3309 32.75 26.1466L33.3139 27.3309H34.3854L36.6411 16.9547H34.3854Z" fill="#BEBEBE"/>
<path d="M50.2036 22.8759C49.9498 23.7218 48.9348 26.7105 46.5381 26.7105C43.6903 26.7105 45.0719 22.3965 45.2975 21.5507C45.523 20.733 46.5663 17.6596 48.8502 17.6596C51.6698 17.6878 50.4573 22.03 50.2036 22.8759ZM51.4724 16.9547L51.2186 18.0261H51.1622C50.5983 16.9547 49.5551 16.6445 48.4836 16.6445C45.2411 16.6445 43.3801 19.3232 42.8444 21.889C42.0549 25.5545 43.1828 27.6692 46.2279 27.6692C47.5531 27.6692 48.5682 27.3309 49.8652 26.1466L50.4292 27.3309H51.5006L53.7563 16.9547H51.4724Z" fill="#BEBEBE"/>
<path d="M94.3305 22.8759C94.0768 23.7218 93.0617 26.7105 90.665 26.7105C87.8172 26.7105 89.1988 22.3965 89.4244 21.5507C89.65 20.733 90.665 17.6596 92.9771 17.6596C95.7967 17.6878 94.5843 22.03 94.3305 22.8759ZM95.5994 16.9547L95.3456 18.0261H95.2892C94.6971 16.9547 93.682 16.6445 92.6106 16.6445C89.368 16.6445 87.5353 19.3232 86.9714 21.889C86.1819 25.5545 87.3097 27.6692 90.3549 27.6692C91.6801 27.6692 92.6952 27.3309 93.9922 26.1466L94.5561 27.3309H95.6275L97.8832 16.9547H95.5994Z" fill="#BEBEBE"/>
<path d="M62.0177 22.9892C61.7921 23.8351 60.777 26.8238 58.6341 26.8238C56.0683 26.8238 56.9142 22.5098 57.1397 21.664C57.4781 20.3105 58.2394 17.8575 60.3541 17.8575C63.2301 17.8575 62.2432 22.1151 62.0177 22.9892ZM61.2 16.7296C59.9311 16.7296 58.6059 17.2936 57.9292 18.2522H57.8446L59.9593 9.00391H57.5909C57.5909 9.00391 54.2919 23.2711 53.3896 27.4442H54.7149L55.7863 26.2599C56.5758 27.4442 57.4217 27.7825 58.7751 27.7825C61.8203 27.7825 63.8222 25.6678 64.6117 22.0023C65.1756 19.4083 64.4425 16.7296 61.2 16.7296Z" fill="#BEBEBE"/>
<path d="M99.124 25.7808C99.124 24.9913 99.7725 24.3428 100.562 24.3428C101.352 24.3428 102 24.9913 102 25.7808C102 26.5703 101.352 27.2188 100.562 27.2188C99.7443 27.2188 99.124 26.5985 99.124 25.7808Z" fill="#BEBEBE"/>
</svg>
