<svg width="32" height="33" viewBox="0 0 32 33" fill="none" xmlns="http://www.w3.org/2000/svg">
<path d="M16 22.5576C18.7614 22.5576 21 20.319 21 17.5576C21 14.7962 18.7614 12.5576 16 12.5576C13.2386 12.5576 11 14.7962 11 17.5576C11 20.319 13.2386 22.5576 16 22.5576Z" stroke="#BEBEBE" stroke-linecap="round" stroke-linejoin="round"/>
<path d="M24.5 14.5576C25.6647 14.5557 26.8137 14.8259 27.8554 15.3468C28.8972 15.8676 29.8028 16.6247 30.5 17.5576" stroke="#BEBEBE" stroke-linecap="round" stroke-linejoin="round"/>
<path d="M1.5 17.5576C2.19725 16.6247 3.10285 15.8676 4.14457 15.3468C5.1863 14.8259 6.33532 14.5557 7.5 14.5576" stroke="#BEBEBE" stroke-linecap="round" stroke-linejoin="round"/>
<path d="M8.80078 27.0573C9.45931 25.7087 10.4834 24.5721 11.7563 23.7771C13.0293 22.9821 14.5 22.5605 16.0008 22.5605C17.5016 22.5605 18.9723 22.9821 20.2452 23.7771C21.5182 24.5721 22.5423 25.7087 23.2008 27.0573" stroke="#BEBEBE" stroke-linecap="round" stroke-linejoin="round"/>
<path d="M7.50015 14.5576C6.74096 14.5584 5.99722 14.3431 5.35584 13.9369C4.71446 13.5306 4.20193 12.9503 3.87814 12.2636C3.55434 11.5769 3.43266 10.8123 3.5273 10.059C3.62194 9.30571 3.929 8.59492 4.4126 8.00967C4.89619 7.42443 5.53636 6.98889 6.25829 6.75396C6.98022 6.51902 7.75411 6.49439 8.48952 6.68294C9.22493 6.87149 9.8915 7.26544 10.4113 7.81875C10.9312 8.37206 11.2828 9.06188 11.4252 9.80762" stroke="#BEBEBE" stroke-linecap="round" stroke-linejoin="round"/>
<path d="M20.5742 9.80762C20.7166 9.06188 21.0682 8.37206 21.588 7.81875C22.1079 7.26544 22.7744 6.87149 23.5099 6.68294C24.2453 6.49439 25.0191 6.51902 25.7411 6.75396C26.463 6.98889 27.1032 7.42443 27.5868 8.00967C28.0704 8.59492 28.3774 9.30571 28.4721 10.059C28.5667 10.8123 28.445 11.5769 28.1212 12.2636C27.7974 12.9503 27.2849 13.5306 26.6435 13.9369C26.0022 14.3431 25.2584 14.5584 24.4992 14.5576" stroke="#BEBEBE" stroke-linecap="round" stroke-linejoin="round"/>
</svg>
