<svg width="116" height="40" viewBox="0 0 116 40" fill="none" xmlns="http://www.w3.org/2000/svg">
<g clip-path="url(#clip0_969_22253)">
<path d="M61.8117 14.8738C61.286 14.6109 60.4975 14.4795 59.7089 14.4795C58.9203 14.4795 58.1317 14.6109 57.606 14.8738C57.0803 15.1366 56.5546 15.5309 56.2917 16.0566C56.0289 16.5823 55.8975 17.1081 55.8975 17.7652C55.8975 18.1595 56.0289 18.5538 56.1603 18.9481C56.2917 19.3423 56.5546 19.6052 56.9489 19.9995C57.2117 20.2623 57.7375 20.5252 58.1317 20.6566C58.6575 20.7881 59.1832 20.9195 59.8403 20.9195C60.366 20.9195 60.8917 20.7881 61.4175 20.6566C61.8117 20.5252 62.3375 20.2623 62.6003 19.9995C62.8632 19.7366 63.126 19.6052 63.2575 19.3423L61.1546 18.8166C61.0232 18.9481 60.8917 19.0795 60.7603 19.2109C60.4975 19.3423 60.2346 19.3423 59.9717 19.3423C59.7089 19.3423 59.5775 19.3423 59.446 19.2109C59.3146 19.2109 59.0517 19.0795 58.9203 18.9481C58.7889 18.8166 58.6575 18.6852 58.6575 18.4223H63.6517C63.6517 18.2909 63.6517 18.2909 63.6517 18.1595C63.6517 18.0281 63.6517 17.8966 63.6517 17.7652C63.6517 17.2395 63.5203 16.5823 63.2575 16.1881C62.8632 15.5309 62.3375 15.1366 61.8117 14.8738ZM58.3946 16.9766C58.3946 16.7138 58.526 16.5823 58.6575 16.4509C58.7889 16.3195 58.9203 16.1881 59.0517 16.1881C59.1832 16.0566 59.446 16.0566 59.5775 16.0566C59.8403 16.0566 59.9717 16.0566 60.1032 16.1881C60.2346 16.3195 60.366 16.3195 60.4975 16.4509C60.6289 16.5823 60.6289 16.7138 60.7603 16.9766H58.3946Z" fill="#BEBEBE"/>
<path d="M54.9762 18.685C54.5819 18.8164 54.3191 18.685 54.1877 18.5535C54.0562 18.4221 54.0562 18.2907 54.0562 18.1592V16.1878H55.5019V14.4792H54.0562V12.5078H51.5591V14.3478H50.7705V16.0564H51.5591V18.9478C51.5591 19.3421 51.6905 19.7364 51.8219 19.9992C51.9534 20.2621 52.2162 20.3935 52.6105 20.525C52.8734 20.6564 53.2677 20.6564 53.6619 20.6564C53.9248 20.6564 54.1877 20.6564 54.4505 20.6564C54.7134 20.6564 54.9762 20.525 55.2391 20.525C55.3705 20.525 55.3705 20.525 55.3705 20.525L54.9762 18.685Z" fill="#BEBEBE"/>
<path d="M69.039 14.2158C68.119 14.2158 67.199 14.7415 66.6733 15.5301V14.4787H64.3076V20.7872H66.8048V16.9758C67.3305 16.5815 67.9876 16.3187 68.7762 16.3187C68.9076 16.3187 68.9076 16.3187 69.039 16.3187V14.2158Z" fill="#BEBEBE"/>
<path d="M41.5704 14.4795H39.0732V20.7881H41.5704V14.4795Z" fill="#BEBEBE"/>
<path d="M49.7196 15.1372C49.5882 14.8743 49.3253 14.7429 49.0625 14.6115C48.7996 14.4801 48.4053 14.3486 47.8796 14.3486C47.4853 14.3486 47.091 14.3486 46.6968 14.4801C46.4339 14.6115 46.0396 14.7429 45.7768 14.8743C45.5139 15.0058 45.3825 15.1372 45.1196 15.4001V14.4801H42.7539V20.7886H45.3825V17.2401C45.5139 17.1086 45.5139 16.8458 45.6453 16.7143C45.7768 16.5829 45.9082 16.4515 46.171 16.4515C46.5653 16.3201 46.9596 16.3201 47.2225 16.5829C47.3539 16.7143 47.4853 16.9772 47.4853 17.2401V20.7886H50.1139V16.5829C50.1139 16.3201 50.1139 16.1886 49.9825 15.9258C49.9825 15.6629 49.851 15.4001 49.7196 15.1372Z" fill="#BEBEBE"/>
<path d="M40.3881 13.9534C41.1865 13.9534 41.8338 13.4827 41.8338 12.902C41.8338 12.3213 41.1865 11.8506 40.3881 11.8506C39.5897 11.8506 38.9424 12.3213 38.9424 12.902C38.9424 13.4827 39.5897 13.9534 40.3881 13.9534Z" fill="#BEBEBE"/>
<path d="M53.9251 23.6803C54.3194 23.286 54.7137 23.1545 55.108 23.1545C55.6337 23.1545 56.028 23.286 56.2908 23.6803C56.5537 24.0745 56.8166 24.4688 56.8166 24.8631C56.8166 25.3888 56.6851 25.7831 56.2908 26.046C55.8966 26.4403 55.5023 26.5717 55.108 26.5717C54.5823 26.5717 54.188 26.3088 53.9251 25.9145V26.4403H53.3994V21.9717H53.9251V23.6803ZM55.108 26.046C55.5023 26.046 55.7651 25.9145 56.028 25.6517C56.2908 25.3888 56.4223 25.126 56.4223 24.7317C56.4223 24.3374 56.2908 24.0745 56.028 23.8117C55.7651 23.5488 55.5023 23.4174 55.108 23.4174C54.7137 23.4174 54.4508 23.5488 54.188 23.8117C53.9251 24.0745 53.7937 24.3374 53.7937 24.7317C53.7937 25.126 53.9251 25.3888 54.188 25.6517C54.4508 25.9145 54.7137 26.046 55.108 26.046ZM67.7251 26.4403H67.068L65.4908 25.126V26.4403H64.9651V21.9717H65.4908V24.3374L66.9366 23.1545H67.7251L65.8851 24.7317L67.7251 26.4403ZM68.3823 21.9717C68.5137 21.9717 68.6451 21.9717 68.6451 22.1031C68.7766 22.2345 68.7766 22.2345 68.7766 22.366C68.7766 22.4974 68.7766 22.4974 68.6451 22.6288C68.5137 22.7603 68.5137 22.7603 68.3823 22.7603C68.2508 22.7603 68.2508 22.7603 68.1194 22.6288C67.988 22.4974 67.988 22.4974 67.988 22.366C67.988 22.2345 67.988 22.2345 68.1194 22.1031C68.2508 21.9717 68.3823 21.9717 68.3823 21.9717ZM68.6451 26.4403H68.1194V23.286H68.6451V26.4403ZM72.3251 26.4403H71.7994V24.8631C71.7994 24.4688 71.7994 24.3374 71.7994 24.206C71.7994 24.0745 71.668 23.9431 71.668 23.9431C71.5366 23.8117 71.5366 23.8117 71.4051 23.8117C71.2737 23.8117 71.1423 23.8117 71.0108 23.8117C70.8794 23.8117 70.748 23.8117 70.6166 23.9431C70.4851 24.0745 70.3537 24.0745 70.2223 24.206C70.0908 24.3374 70.0908 24.4688 69.9594 24.6003C69.9594 24.7317 69.9594 24.9945 69.9594 25.3888V26.5717H69.4337V23.4174H69.9594V23.9431C70.2223 23.5488 70.6166 23.4174 71.1423 23.4174C71.4051 23.4174 71.5366 23.4174 71.7994 23.5488C71.9308 23.6803 72.1937 23.8117 72.1937 24.0745C72.3251 24.3374 72.3251 24.6003 72.3251 24.9945V26.4403ZM76.268 25.6517C76.268 26.046 76.268 26.4403 76.1366 26.5717C76.0051 26.8345 76.0051 26.966 75.7423 27.0974C75.6108 27.2288 75.348 27.3603 75.2166 27.3603C74.9537 27.4917 74.8223 27.4917 74.5594 27.4917C73.7708 27.4917 73.1137 27.0974 72.8508 26.4403H73.3766C73.6394 26.8345 74.0337 27.0974 74.5594 27.0974C74.8223 27.0974 75.0851 27.0974 75.2166 26.966C75.348 26.8345 75.6108 26.7031 75.6108 26.5717C75.7423 26.4403 75.7423 26.1774 75.7423 25.9145C75.6108 26.046 75.348 26.1774 75.2166 26.3088C74.9537 26.4403 74.8223 26.4403 74.5594 26.4403C74.0337 26.4403 73.6394 26.3088 73.3766 25.9145C73.1137 25.6517 72.8508 25.2574 72.8508 24.7317C72.8508 24.3374 72.9823 23.9431 73.3766 23.5488C73.7708 23.286 74.1651 23.0231 74.5594 23.0231C74.9537 23.0231 75.4794 23.1545 75.7423 23.5488V23.0231H76.268V25.6517ZM75.8737 24.7317C75.8737 24.3374 75.7423 24.0745 75.4794 23.9431C75.2166 23.6803 74.9537 23.6803 74.6908 23.6803C74.2966 23.6803 74.0337 23.8117 73.7708 24.0745C73.508 24.3374 73.3766 24.6003 73.3766 24.8631C73.3766 25.126 73.508 25.3888 73.7708 25.6517C74.0337 25.9145 74.2966 25.9145 74.6908 25.9145C75.0851 25.9145 75.348 25.7831 75.6108 25.6517C75.7423 25.3888 75.8737 25.126 75.8737 24.7317ZM60.628 26.4403H60.1023V25.9145C59.708 26.3088 59.3137 26.4403 58.9194 26.4403C58.3937 26.4403 57.9994 26.3088 57.7366 25.9145C57.3423 25.5203 57.2108 25.126 57.2108 24.7317C57.2108 24.3374 57.3423 23.8117 57.7366 23.5488C58.1308 23.1545 58.5251 23.0231 58.9194 23.0231C59.4451 23.0231 59.8394 23.1545 60.1023 23.5488V23.0231H60.628V26.4403ZM58.9194 26.046C59.3137 26.046 59.5766 25.9145 59.8394 25.6517C60.1023 25.3888 60.2337 25.126 60.2337 24.7317C60.2337 24.3374 60.1023 24.0745 59.8394 23.8117C59.5766 23.5488 59.3137 23.4174 58.9194 23.4174C58.5251 23.4174 58.2623 23.5488 57.9994 23.8117C57.7366 24.0745 57.6051 24.3374 57.6051 24.7317C57.6051 25.126 57.7366 25.3888 57.9994 25.6517C58.2623 25.9145 58.6566 26.046 58.9194 26.046ZM64.1766 26.4403H63.6508V24.8631C63.6508 24.4688 63.6508 24.3374 63.6508 24.206C63.6508 24.0745 63.5194 23.9431 63.5194 23.9431C63.388 23.8117 63.388 23.8117 63.2566 23.8117C63.1251 23.8117 62.9937 23.8117 62.8623 23.8117C62.7308 23.8117 62.5994 23.8117 62.468 23.9431C62.3366 24.0745 62.2051 24.0745 62.0737 24.206C61.9423 24.3374 61.9423 24.4688 61.8108 24.6003C61.8108 24.7317 61.8108 24.9945 61.8108 25.3888V26.5717H61.2851V23.4174H61.8108V23.9431C62.0737 23.5488 62.468 23.4174 62.9937 23.4174C63.2566 23.4174 63.388 23.4174 63.6508 23.5488C63.7823 23.6803 64.0451 23.8117 64.0451 24.0745C64.1766 24.3374 64.1766 24.6003 64.1766 24.9945V26.4403Z" fill="#BEBEBE"/>
<path d="M61.9424 8.96003C68.3824 8.96003 73.6395 14.2172 73.771 20.6572C73.771 20.6572 73.771 20.6572 73.771 20.7886H76.2681C76.2681 12.9029 69.8281 6.46289 61.9424 6.46289V8.96003Z" fill="#BEBEBE"/>
<path d="M61.5476 32.6172C58.9191 32.6172 56.2905 31.5657 54.1876 29.9886C52.0848 28.28 50.7705 26.0457 50.1134 23.4172C50.1134 23.4172 50.1134 23.2857 50.1134 23.1543H47.6162V23.2857C48.7991 29.9886 54.5819 34.9829 61.6791 35.1143V32.6172H61.5476Z" fill="#BEBEBE"/>
</g>
<defs>
<clipPath id="clip0_969_22253">
<rect width="46" height="30.2286" fill="white" transform="translate(35 4.88574)"/>
</clipPath>
</defs>
</svg>
