<svg width="116" height="40" viewBox="0 0 116 40" fill="none" xmlns="http://www.w3.org/2000/svg">
<path d="M14 25.5423V11.2072H16.2071L23.6967 21.1743V11.2072H26.2393V25.5423H24.0391L16.553 15.5769V25.544L14 25.5423ZM37.913 25.5423H35.4586V24.9336C34.7303 25.5208 33.8249 25.8464 32.8883 25.8579C32.1818 25.8701 31.4813 25.7268 30.8367 25.4383C30.1921 25.1498 29.6193 24.7231 29.159 24.1886C28.3043 23.2546 27.8408 22.0298 27.8635 20.7656C27.8566 20.1029 27.9815 19.4453 28.2308 18.8309C28.4801 18.2165 28.8489 17.6573 29.316 17.1857C29.7831 16.7141 30.3393 16.3393 30.9524 16.083C31.5655 15.8267 32.2234 15.694 32.8883 15.6924C33.8249 15.7036 34.7304 16.0292 35.4586 16.6167V16.0063H37.913V25.5423ZM30.9181 18.8843C30.5393 19.3671 30.3491 19.9983 30.3491 20.7639C30.3491 21.6572 30.6016 22.3711 31.1188 22.885C31.3535 23.126 31.6353 23.3165 31.9468 23.4447C32.2583 23.5728 32.5928 23.6358 32.9298 23.6299C33.3179 23.6425 33.7033 23.5601 34.0521 23.39C34.401 23.2198 34.7027 22.9671 34.931 22.6539C35.3205 22.0996 35.5167 21.4332 35.4897 20.757C35.4897 19.8845 35.2372 19.1809 34.7321 18.6567C34.4943 18.4113 34.207 18.2189 33.8892 18.0923C33.5714 17.9657 33.2302 17.9077 32.8883 17.9221C32.5067 17.9143 32.1288 17.9976 31.7861 18.165C31.4434 18.3323 31.1458 18.579 30.9181 18.8843ZM42.6541 16.627C43.1755 16.1797 43.8412 15.9349 44.5291 15.9373C44.8321 15.9409 45.1347 15.9617 45.4355 15.9994V18.1945C45.0566 18.1635 44.7609 18.1532 44.5498 18.1532C43.8326 18.1532 43.3373 18.3526 43.064 18.7515C42.789 19.1602 42.6524 19.8862 42.6524 20.9467V25.5423H40.1997V16.0063H42.6541V16.627ZM56.2651 25.5423H53.8106V24.9336C53.0822 25.5206 52.1769 25.8461 51.2403 25.8579C50.5344 25.8697 49.8345 25.7263 49.1906 25.4377C48.5466 25.1492 47.9744 24.7227 47.5145 24.1886C46.6595 23.2548 46.1959 22.0298 46.219 20.7656C46.2119 20.1028 46.3366 19.4452 46.5858 18.8306C46.835 18.2161 47.2039 17.6569 47.671 17.1852C48.1382 16.7135 48.6944 16.3388 49.3076 16.0825C49.9208 15.8263 50.5789 15.6937 51.2438 15.6924C52.1804 15.7039 53.0858 16.0295 53.8141 16.6167V16.0063H56.2685L56.2651 25.5423ZM49.2702 18.8843C48.8914 19.3671 48.7011 19.9983 48.7011 20.7639C48.7011 21.6572 48.9536 22.3711 49.4691 22.885C49.7041 23.1262 49.9862 23.3167 50.298 23.4449C50.6098 23.573 50.9446 23.636 51.2818 23.6299C51.67 23.6425 52.0553 23.5601 52.4042 23.39C52.753 23.2198 53.0548 22.9671 53.2831 22.6539C53.6724 22.0995 53.8686 21.4332 53.8418 20.757C53.8418 19.8845 53.5892 19.1809 53.0824 18.6567C52.8446 18.4113 52.5573 18.2189 52.2395 18.0923C51.9217 17.9657 51.5805 17.9077 51.2386 17.9221C50.8573 17.9144 50.4797 17.9978 50.1373 18.1652C49.7949 18.3325 49.4976 18.5791 49.2702 18.8843V18.8843ZM61.0062 16.5115C61.6281 15.9877 62.4146 15.6978 63.2288 15.6924C63.7841 15.691 64.3338 15.803 64.844 16.0216C65.3542 16.2402 65.8141 16.5607 66.1952 16.9633C66.9425 17.7514 67.2486 18.7808 67.2486 20.4121V25.5423H64.7976V20.576C64.7976 19.5045 64.6397 18.7906 64.3237 18.4342C64.1626 18.2596 63.9648 18.1227 63.7444 18.0333C63.524 17.9439 63.2865 17.9041 63.0489 17.9169C62.3432 17.9169 61.8053 18.1376 61.449 18.5791C61.1532 18.9481 61.0062 19.6724 61.0062 20.7812V25.5423H58.5517V16.0063H61.0062V16.5115ZM72.0762 11.7124C72.2177 11.8505 72.3298 12.0156 72.4059 12.1978C72.4819 12.38 72.5204 12.5756 72.519 12.773C72.5223 12.9721 72.4848 13.1699 72.4086 13.354C72.3325 13.5382 72.2193 13.7049 72.0762 13.8438C71.9325 13.9871 71.7614 14.1001 71.573 14.1759C71.3846 14.2517 71.1827 14.289 70.9796 14.2853C70.7781 14.2897 70.5779 14.2528 70.3913 14.1769C70.2047 14.1009 70.0358 13.9876 69.895 13.8438C69.7474 13.7056 69.6308 13.5378 69.5527 13.3515C69.4746 13.1651 69.4368 12.9645 69.4419 12.7626C69.4389 12.5641 69.4777 12.3671 69.5557 12.1845C69.6338 12.0018 69.7494 11.8375 69.895 11.7021C70.1932 11.4194 70.5907 11.2646 71.002 11.271C71.2015 11.2697 71.3993 11.308 71.5837 11.3838C71.7682 11.4596 71.9356 11.5713 72.0762 11.7124V11.7124ZM83.9402 25.5423H81.4857V24.9336C80.7574 25.5208 79.852 25.8464 78.9154 25.8579C78.2095 25.8696 77.5097 25.7261 76.8658 25.4376C76.2218 25.1491 75.6495 24.7226 75.1896 24.1886C74.3349 23.2546 73.8714 22.0298 73.8941 20.7656C73.887 20.1028 74.0117 19.4452 74.2609 18.8306C74.5101 18.2161 74.879 17.6569 75.3461 17.1852C75.8133 16.7135 76.3695 16.3388 76.9827 16.0825C77.5959 15.8263 78.254 15.6937 78.9189 15.6924C79.8555 15.7037 80.761 16.0293 81.4892 16.6167V16.0063H83.9436L83.9402 25.5423ZM76.9453 18.8843C76.5665 19.3671 76.3762 19.9983 76.3762 20.7639C76.3762 21.6572 76.6287 22.3711 77.1459 22.885C77.3809 23.1262 77.663 23.3167 77.9748 23.4449C78.2866 23.573 78.6214 23.636 78.9586 23.6299C79.3468 23.6428 79.7323 23.5605 80.0812 23.3904C80.4301 23.2202 80.7318 22.9673 80.9599 22.6539C81.3494 22.0997 81.5457 21.4332 81.5186 20.757C81.5186 19.8845 81.2661 19.1809 80.761 18.6567C80.5232 18.4113 80.2359 18.2189 79.9181 18.0923C79.6002 17.9657 79.2591 17.9077 78.9171 17.9221C78.5353 17.9139 78.157 17.997 77.8139 18.1644C77.4709 18.3318 77.173 18.5786 76.9453 18.8843V18.8843ZM69.7394 16.0063V25.9355C69.729 26.3062 69.5664 27.9944 67.3351 28.1375V30.5C67.3351 30.5 71.9897 30.4224 72.1869 26.1441V16.0063H69.7394ZM101.842 10.9675C101.786 10.9027 101.716 10.851 101.638 10.8161C101.559 10.7812 101.474 10.764 101.388 10.7657C101.238 10.7631 101.092 10.8188 100.983 10.9209C100.921 10.9767 100.871 11.0451 100.838 11.1216C100.804 11.198 100.788 11.2807 100.789 11.3641C100.786 11.4453 100.8 11.5262 100.83 11.6018C100.86 11.6774 100.905 11.7461 100.962 11.8038C101.073 11.9138 101.221 11.9773 101.377 11.9815C101.533 11.9857 101.685 11.9301 101.801 11.8263C101.865 11.7698 101.916 11.7002 101.95 11.6222C101.985 11.5442 102.002 11.4596 102 11.3745C102.002 11.2236 101.946 11.0776 101.842 10.9675V10.9675ZM101.744 11.6935C101.659 11.7866 101.541 11.8426 101.415 11.8494C101.289 11.8562 101.165 11.8132 101.071 11.7297C101.023 11.6856 100.984 11.6324 100.957 11.5732C100.929 11.514 100.914 11.4499 100.912 11.3848C100.911 11.2644 100.955 11.1479 101.036 11.0589C101.079 11.0089 101.132 10.9688 101.192 10.9417C101.252 10.9146 101.317 10.901 101.382 10.902C101.503 10.8984 101.62 10.9425 101.708 11.0244C101.754 11.0662 101.792 11.1167 101.819 11.1731C101.846 11.2295 101.862 11.2907 101.866 11.3532C101.869 11.4156 101.86 11.4781 101.839 11.5371C101.818 11.5961 101.786 11.6504 101.744 11.6969V11.6935Z" fill="#BEBEBE"/>
<path d="M101.492 11.5739C101.466 11.5867 101.437 11.5926 101.408 11.5911C101.379 11.5915 101.351 11.5861 101.326 11.5751C101.3 11.5641 101.276 11.5478 101.257 11.5273C101.237 11.5071 101.22 11.4829 101.21 11.4562C101.199 11.4295 101.194 11.4009 101.195 11.3721C101.194 11.3436 101.199 11.3151 101.209 11.2885C101.22 11.2618 101.235 11.2375 101.255 11.2169C101.275 11.1962 101.298 11.1799 101.325 11.1689C101.351 11.1579 101.379 11.1525 101.408 11.1531C101.477 11.1531 101.513 11.1738 101.58 11.2514L101.684 11.1514C101.65 11.1097 101.607 11.0757 101.558 11.0516C101.51 11.0275 101.457 11.0139 101.402 11.0117C101.355 11.0113 101.308 11.0202 101.264 11.038C101.22 11.0559 101.179 11.0822 101.146 11.1156C101.112 11.1489 101.085 11.1886 101.067 11.2324C101.049 11.2761 101.039 11.323 101.039 11.3704C101.038 11.4591 101.07 11.5449 101.131 11.6101C101.164 11.6488 101.206 11.6795 101.253 11.7001C101.3 11.7207 101.351 11.7306 101.402 11.7291C101.452 11.7285 101.501 11.7177 101.546 11.6976C101.591 11.6774 101.632 11.6482 101.665 11.6118L101.688 11.5894L101.584 11.4894C101.557 11.521 101.526 11.5493 101.492 11.5739V11.5739Z" fill="#BEBEBE"/>
<path d="M95.5596 17.1237L90.7736 9.70868C90.7302 9.64381 90.6712 9.59076 90.602 9.55433C90.5329 9.5179 90.4557 9.49923 90.3775 9.50002H87.1897C87.1613 9.50064 87.1336 9.50873 87.1094 9.52346C87.0852 9.53819 87.0653 9.55905 87.0518 9.58391C87.0382 9.60877 87.0316 9.63676 87.0324 9.66503C87.0332 9.69331 87.0415 9.72086 87.0565 9.74489L92.0449 17.4686C92.0614 17.4943 92.0701 17.5242 92.0701 17.5548C92.0701 17.5853 92.0614 17.6152 92.0449 17.641L87.0565 25.344C87.041 25.3682 87.0323 25.3961 87.0313 25.4247C87.0304 25.4534 87.0371 25.4818 87.0509 25.507C87.0647 25.5322 87.085 25.5532 87.1097 25.5679C87.1344 25.5826 87.1626 25.5905 87.1914 25.5906H90.3809C90.4593 25.5905 90.5365 25.5709 90.6054 25.5336C90.6742 25.4962 90.7327 25.4423 90.7753 25.3768L95.5596 17.9911C95.6435 17.8619 95.6881 17.7113 95.6881 17.5574C95.6881 17.4035 95.6435 17.2529 95.5596 17.1237V17.1237Z" fill="#5F6373"/>
<path d="M96.5409 18.6342C96.5262 18.6122 96.5063 18.5941 96.4829 18.5816C96.4595 18.569 96.4334 18.5625 96.4068 18.5625C96.3803 18.5625 96.3541 18.569 96.3307 18.5816C96.3074 18.5941 96.2874 18.6122 96.2728 18.6342L94.9582 20.6621C94.8325 20.8558 94.7656 21.0816 94.7656 21.3122C94.7656 21.5429 94.8325 21.7687 94.9582 21.9624L97.1964 25.4112C97.2326 25.4672 97.2822 25.5133 97.3408 25.5452C97.3995 25.5771 97.4652 25.5939 97.532 25.594H100.836C100.857 25.5939 100.878 25.5881 100.896 25.5772C100.915 25.5664 100.93 25.5508 100.94 25.5321C100.95 25.5134 100.955 25.4924 100.955 25.4711C100.954 25.4498 100.947 25.4292 100.936 25.4112L96.5409 18.6342Z" fill="#393B43"/>
<path d="M96.2749 16.4563C96.2896 16.4784 96.3095 16.4965 96.3329 16.509C96.3563 16.5215 96.3824 16.528 96.409 16.528C96.4355 16.528 96.4617 16.5215 96.485 16.509C96.5084 16.4965 96.5284 16.4784 96.543 16.4563L100.94 9.68279C100.951 9.66483 100.958 9.64414 100.958 9.62287C100.959 9.6016 100.954 9.58054 100.944 9.56187C100.934 9.5432 100.919 9.52762 100.9 9.51674C100.882 9.50585 100.861 9.50007 100.84 9.5H97.5359C97.4691 9.50007 97.4034 9.51684 97.3447 9.54878C97.2861 9.58071 97.2365 9.62678 97.2003 9.68279L94.9621 13.1316C94.8364 13.3253 94.7695 13.5511 94.7695 13.7817C94.7695 14.0124 94.8364 14.2382 94.9621 14.4318L96.2749 16.4563Z" fill="#BEBEBE"/>
</svg>
