<svg width="116" height="40" viewBox="0 0 116 40" fill="none" xmlns="http://www.w3.org/2000/svg">
<path d="M47.4102 27.1203C51.9255 27.2732 55.331 24.7817 55.5439 21.1896C55.7415 17.246 51.8191 16.3748 48.6873 15.6716L48.6265 15.9009L48.6873 15.6716C46.5285 15.1825 44.6737 14.7698 44.7497 13.6387C44.8105 12.6299 46.0724 11.8962 47.6231 11.942C49.5235 12.0032 50.9221 12.8439 51.1046 14.0055C51.1502 14.2043 51.3934 14.2043 51.4998 14.1278C51.6215 14.0667 54.9357 12.2172 54.9357 12.2172C55.0422 12.156 55.0878 12.0185 55.0422 11.9115C53.9779 9.57282 51.2414 8.0443 47.8815 7.9373C43.7615 7.79973 40.5233 10.1842 40.3256 13.5164C40.0824 17.9339 44.0656 18.744 47.2734 19.4165C49.6603 19.9057 51.1046 20.2878 51.059 21.3425C50.9981 22.443 49.5387 23.2226 47.6535 23.1461C45.8291 23.085 44.4456 22.1832 44.1264 20.8381C44.1112 20.7616 44.0656 20.7158 43.9896 20.6852C43.9287 20.6546 43.8527 20.6546 43.7919 20.7005L40.3408 22.6264C40.2344 22.6876 40.1888 22.8251 40.2344 22.9321C41.3594 25.4389 44.0352 26.998 47.4102 27.1203Z" fill="#BEBEBE"/>
<path d="M93.4461 13.8375C91.7889 12.1866 89.4629 11.2695 86.8936 11.2695C81.5725 11.2695 77.7109 15.0908 77.7109 20.3643C77.7109 25.8517 81.6181 29.8411 86.9848 29.8411C90.5879 29.8411 93.9022 27.9305 95.0424 25.1791C95.0728 25.118 95.0728 25.0568 95.0424 24.9957C95.012 24.9346 94.9664 24.8887 94.9056 24.8734L91.3025 23.6812C91.196 23.6506 91.0896 23.6812 91.044 23.7729C90.2838 25.011 88.5811 25.8822 86.9088 25.8822C84.6739 25.8822 82.9712 24.4607 82.4239 22.1374H95.6809C95.8026 22.1374 95.8938 22.0456 95.909 21.9386L95.9394 21.6635C95.9546 21.4495 96.0002 20.884 96.0002 20.3948C96.0002 17.8116 95.088 15.4883 93.4461 13.8375ZM82.4543 18.5147C83.0624 16.4818 84.7043 15.2284 86.7872 15.2284C88.9612 15.2284 90.6791 16.5124 91.2264 18.5147H82.4543Z" fill="#BEBEBE"/>
<path d="M75.6589 5.26237C75.5981 5.21651 75.5221 5.21651 75.4461 5.2318L71.3717 6.72975C71.2804 6.76032 71.2196 6.85204 71.2196 6.94375V13.2871C69.7906 11.9879 67.9206 11.2695 65.8834 11.2695C60.8816 11.2695 57.248 15.1672 57.248 20.5476C57.248 25.928 60.8816 29.8258 65.8834 29.8258C68.0422 29.8258 70.0186 29.031 71.4781 27.5941L72.2382 29.0615C72.2838 29.138 72.3599 29.1838 72.4359 29.1838H75.5069C75.6285 29.1838 75.7349 29.0768 75.7349 28.9545V5.44579C75.7501 5.36937 75.7197 5.29294 75.6589 5.26237ZM66.5675 25.5153C63.7701 25.5153 61.7481 23.4213 61.7481 20.5476C61.7481 17.674 63.7701 15.5799 66.5675 15.5799C69.3497 15.5799 71.3565 17.674 71.3565 20.5476C71.3565 23.4213 69.3497 25.5153 66.5675 25.5153Z" fill="#BEBEBE"/>
<path d="M55.5898 28.8776C55.5442 28.8012 55.4377 28.7859 55.3617 28.8165C53.1269 30.0546 50.5728 30.7577 47.8818 30.7577C45.1757 30.7577 42.6368 30.0546 40.4019 28.8165C40.3259 28.7706 40.2195 28.8012 40.1739 28.8776L38.1215 31.9041C38.0607 31.9958 38.0911 32.1028 38.1823 32.1639C41.0557 33.83 44.3699 34.7777 47.8818 34.7777C51.3937 34.7777 54.708 33.83 57.5814 32.1639C57.6726 32.1181 57.703 31.9958 57.6422 31.9041L55.5898 28.8776Z" fill="#BEBEBE"/>
<path d="M29.3043 11.2695C23.8312 11.2695 20 15.0908 20 20.5477C19.9848 26.0045 23.816 29.8258 29.3043 29.8258C34.7774 29.8258 38.6086 26.0045 38.6086 20.5477C38.6086 15.0756 34.7774 11.2695 29.3043 11.2695ZM29.3043 25.7141C26.5069 25.7141 24.4849 23.5436 24.4849 20.5477C24.4849 17.5518 26.5069 15.3813 29.3043 15.3813C32.1017 15.3813 34.1237 17.5518 34.1237 20.5477C34.1237 23.5436 32.0865 25.7141 29.3043 25.7141Z" fill="#BEBEBE"/>
</svg>
