<svg width="116" height="40" viewBox="0 0 116 40" fill="none" xmlns="http://www.w3.org/2000/svg">
<path d="M16.3423 23.1751H17.265C18.3436 23.1751 18.8792 22.5382 18.8792 21.7621C18.8792 20.3861 17.6383 20.2534 17.1439 20.2534H16.3423V23.1751ZM16.3423 19.2959H17.0987C17.6464 19.2959 18.4874 19.1545 18.4874 18.0492C18.4874 16.8767 17.6464 16.8315 17.0262 16.8315H16.3423V19.2959ZM15.1426 15.8711H17.5287C18.3303 15.8711 19.6842 16.1951 19.6842 17.8354C19.6842 19.2009 18.7864 19.5822 18.4004 19.7271V19.7509C19.0148 19.8436 20.0789 20.276 20.0789 21.8664C20.0789 23.8926 18.4764 24.1309 17.4337 24.1309H15.1426V15.8711Z" fill="#BEBEBE"/>
<path d="M28.1514 15.8712H29.649L32.9057 22.3359H32.9272V15.8712H34.004V24.1338H32.591L29.2514 17.5137H29.2277V24.1338H28.1514V15.8712Z" fill="#BEBEBE"/>
<path d="M40.1039 22.8609C39.762 23.0579 39.2108 23.3077 38.5008 23.3077C36.7916 23.3077 36.2879 21.7869 36.2879 19.716C36.2879 18.5911 36.5041 16.697 38.0597 16.697C38.7013 16.697 39.0305 16.9839 39.1992 17.3218L40.1173 16.4686C39.6669 16.0113 38.9813 15.7406 38.0957 15.7406C35.6915 15.7406 34.9717 17.7159 34.9717 19.9056C34.9717 23.1385 36.4433 24.2646 38.2655 24.2646C39.2276 24.2646 40.0721 23.9325 40.4221 23.7766L40.1039 22.8609Z" fill="#BEBEBE"/>
<path d="M43.7739 23.3079C45.4258 23.3079 45.6906 21.353 45.6906 20.0037C45.6906 18.6498 45.4258 16.6971 43.7739 16.6971C42.1256 16.6971 41.8735 18.6498 41.8735 20.0037C41.8735 21.353 42.1256 23.3079 43.7739 23.3079ZM40.5566 20.0037C40.5566 17.7648 41.2394 15.7397 43.7739 15.7397C46.3119 15.7397 47.0115 17.7648 47.0115 20.0037C47.0115 22.2305 46.3119 24.2637 43.7739 24.2637C41.2394 24.2637 40.5566 22.2305 40.5566 20.0037Z" fill="#BEBEBE"/>
<path d="M27.5188 24.1338L24.6933 15.8689H23.2205L20.4072 24.1338H21.6788L23.9497 16.9707H23.9769L25.0283 20.2859H23.9792L23.6755 21.2416H25.3331L26.2506 24.1338H27.5188Z" fill="#BEBEBE"/>
<path d="M49.3525 19.3296H50.2063C51.078 19.3296 51.7219 19.0989 51.7219 18.0922C51.7219 16.8437 50.8241 16.8258 50.2063 16.8258H49.3525V19.3296ZM48.1562 15.8689H50.1413C51.3643 15.8689 53.037 15.8984 53.037 18.0638C53.037 20.0912 51.2565 20.2859 50.4166 20.2859H49.3525V24.1338H48.1562V15.8689Z" fill="#BEBEBE"/>
<path d="M60.6718 16.8254H58.6113V15.8696H63.925V16.8254H61.8692V24.1328H60.6718V16.8254Z" fill="#BEBEBE"/>
<path d="M80.587 23.3081C82.24 23.3081 82.5037 21.3532 82.5037 20.0039C82.5037 18.6488 82.24 16.6962 80.587 16.6962C78.9387 16.6962 78.6889 18.6488 78.6889 20.0039C78.6889 21.3532 78.9387 23.3081 80.587 23.3081ZM77.3721 20.0039C77.3721 17.7603 78.056 15.7352 80.587 15.7352C83.1285 15.7352 83.8235 17.7603 83.8235 20.0039C83.8235 22.2307 83.1285 24.2627 80.587 24.2627C78.056 24.2627 77.3721 22.2307 77.3721 20.0039Z" fill="#BEBEBE"/>
<path d="M84.79 15.8689H86.2831L89.5432 22.3359H89.5658V15.8689H90.6427V24.1338H89.232L85.8924 17.5126H85.8663V24.1338H84.79V15.8689Z" fill="#BEBEBE"/>
<path d="M91.916 15.8691H93.1134V24.1335H91.916V15.8691Z" fill="#BEBEBE"/>
<path d="M73.4884 20.286H75.244V22.9816C75.164 23.1045 74.5763 23.3085 73.846 23.3085C71.9456 23.3085 71.7224 21.3194 71.7224 19.7504C71.7224 18.2528 72.0777 16.6971 73.6333 16.6971C74.3022 16.6971 74.7021 16.9771 74.9055 17.3689L75.8114 16.5221C75.3054 15.9958 74.5149 15.7344 73.6449 15.7344C71.2993 15.7344 70.4004 17.4738 70.4004 19.7504C70.4004 22.9486 71.752 24.2637 73.8837 24.2637C75.244 24.2637 76.0977 23.6789 76.3499 23.4876V19.3302H73.4884V20.286Z" fill="#BEBEBE"/>
<path d="M59.3603 24.1338L56.5313 15.8689H55.0563L52.2412 24.1338H53.5122L55.7889 16.9707H55.8115L56.8652 20.2859H55.8138L55.5136 21.2416H57.1654L58.0881 24.1338H59.3603Z" fill="#BEBEBE"/>
<path d="M100.857 24.1338L98.0318 15.8689H96.559L93.7451 24.1338H95.015L97.2916 16.9707H97.3119L98.3633 20.2859H97.3177L97.014 21.2416H98.6693L99.5874 24.1338H100.857Z" fill="#BEBEBE"/>
<path d="M70.3037 24.1338L67.4783 15.8689H66.0032L63.1934 24.1338H64.4592L66.7358 16.9707H66.7561L67.8098 20.2859H66.7607L66.4582 21.2416H68.1146L69.0339 24.1338H70.3037Z" fill="#BEBEBE"/>
</svg>
