<svg width="116" height="40" viewBox="0 0 116 40" fill="none" xmlns="http://www.w3.org/2000/svg">
<g clip-path="url(#clip0_916_6944)">
<mask id="mask0_916_6944" style="mask-type:luminance" maskUnits="userSpaceOnUse" x="41" y="1" width="34" height="38">
<path d="M74.4997 1.5H41.5V38.5H74.4997V1.5Z" fill="white"/>
</mask>
<g mask="url(#mask0_916_6944)">
<path d="M45.7497 34.0299C45.6957 33.8555 45.5381 33.4634 45.4951 33.1739C45.4003 32.5328 45.731 32.1106 46.0347 32.0139C46.3756 31.9175 46.5087 32.091 46.6406 32.4942C46.8112 33.1083 46.8302 33.913 46.7729 35.065C46.6983 36.6385 45.9215 38.5389 43.9906 38.4994C42.3239 38.4624 41.5863 37.3683 41.5097 35.6989C41.4735 34.912 41.529 34.1253 41.8505 33.0129C42.0211 32.4171 42.1732 32.2051 42.7024 32.091C43.1184 32.0139 43.081 32.4548 42.9868 32.9746C42.7794 34.1253 42.6831 34.681 42.7598 35.9865C42.834 37.3683 43.4602 37.9059 44.1419 37.9059C45.1644 37.9258 45.6184 37.0623 45.8086 35.8137C45.9587 34.8162 45.8455 34.3365 45.7497 34.0299ZM67.5511 35.3927C67.9494 35.3927 68.0635 35.8699 67.9684 36.1591C67.8733 36.4464 67.533 36.7741 67.0032 36.8696C66.8891 36.581 66.832 35.3927 67.5511 35.3927ZM60.1496 36.0431C60.1496 35.7182 59.9781 35.4493 59.7717 35.4493C59.5993 35.4493 59.2032 35.6405 59.2032 36.2549C59.2032 36.7362 59.3719 36.9644 59.4492 37.0623C59.9969 36.8888 60.1496 36.4271 60.1496 36.0431ZM54.26 32.1292C54.2333 31.8214 53.9952 31.6118 53.6731 31.6118C53.3138 31.6118 52.9755 31.994 53.0114 32.474C53.0344 32.7905 53.2184 33.0508 53.5801 33.0508C53.9952 33.0511 54.298 32.5713 54.26 32.1292ZM57.3392 33.2563C57.3063 32.7197 57.1781 32.4774 56.8937 32.4973C56.5167 32.5204 56.3424 33.7227 56.4194 34.9866C56.4685 35.8112 56.5897 35.9383 56.7026 35.9303C56.9112 35.9175 57.4116 34.4444 57.3392 33.2563ZM69.8993 35.2764C69.6646 36.263 68.9532 37.7143 67.8917 37.7143C67.6459 37.7143 67.2103 37.6176 67.2103 37.3683C67.2103 37.0993 68.8777 37.0623 68.8777 35.7757C68.8777 35.2966 68.4424 34.6241 67.7981 34.6241C66.9462 34.6241 66.1151 35.5652 66.1151 36.8699C66.1151 38.0396 66.832 38.4236 67.5515 38.4236C68.8016 38.4236 69.5591 37.3866 69.9563 36.5238C70.1466 37.0996 70.2582 38.4236 70.7334 38.4236C70.9221 38.4236 71.0556 38.3275 71.2829 37.8101C71.8495 36.5235 72.3993 35.046 73.157 35.046C73.4402 35.046 73.2705 35.5652 73.9519 35.5652C74.2731 35.5652 74.4995 35.2966 74.4995 34.9882C74.4995 34.5463 74.1026 34.2021 73.4973 34.2021C71.717 34.2021 71.3396 36.9081 71.0552 36.9081C70.5816 36.9081 70.7331 34.7394 70.3917 34.7394C70.0886 34.7391 69.9398 35.1051 69.8993 35.2764ZM54.7527 37.5788C55.0364 37.5788 55.5245 37.4855 55.9086 36.8621C55.689 36.3677 55.5322 35.3687 55.5104 35.005C55.3975 33.1447 56.1047 31.3948 56.8787 31.3463C57.4462 31.3115 57.9003 31.8559 57.9524 32.738C58.092 35.0559 57.3303 36.0235 56.9489 36.8584C57.0134 37.182 57.5552 37.733 58.0663 37.733C58.2549 37.733 58.4832 37.6369 58.5405 37.5592C58.5025 37.4258 58.4639 37.2532 58.4639 37.003C58.4639 35.6598 59.3161 34.5271 60.0548 34.5271C60.6417 34.5271 60.9826 35.3137 60.9826 35.8329C60.9826 36.4461 60.4708 36.9461 59.714 37.4258C59.8471 37.5592 60.092 37.6562 60.3012 37.6562C61.3814 37.6562 61.9465 36.3317 62.3649 35.1222C62.4404 34.8915 62.5739 34.5659 62.8383 34.5659C63.2927 34.5659 63.4829 37.5981 64.2382 37.5981C64.5612 37.5981 64.8257 36.9258 64.8257 36.4091C64.8257 36.0248 64.6931 35.9862 64.6931 35.4297C64.6931 34.8162 65.0153 34.2985 65.4518 34.2985C65.7166 34.2985 65.8123 34.5659 65.8123 34.8915C65.8123 36.1199 64.9401 38.404 63.6544 38.404C62.6871 38.404 62.7625 36.715 62.422 36.715C62.0416 36.715 61.5115 38.4229 59.6388 38.4229C59.3345 38.4229 59.0133 38.2697 58.7489 37.9618C58.2951 38.2697 57.9153 38.404 57.4797 38.404C56.7799 38.404 56.4762 37.6745 56.193 37.6745C55.8516 37.6745 55.4739 38.4229 54.3367 38.4229C53.428 38.4229 53.2764 37.196 52.9552 37.196C52.6705 37.196 52.2352 38.4229 51.7621 38.4229C50.9657 38.4229 50.797 36.2934 50.095 36.2934C49.5462 36.2934 47.8113 38.4562 47.3404 38.4068C47.1511 38.3869 47.0714 38.2435 47.0913 38.0514C47.118 37.7859 47.3435 37.0751 47.4349 36.739C47.588 36.1554 47.7285 35.5158 47.807 35.3118C47.885 35.106 48.0951 34.9592 48.2638 34.9751C48.3488 34.9832 48.3743 35.1439 48.4007 35.2767C48.4964 35.7512 48.6298 36.235 48.7805 36.235C49.0465 36.235 49.9248 34.5268 50.4359 34.5268C51.0617 34.5268 51.1366 37.2141 51.9882 37.2141C52.2729 37.2141 52.4818 36.8693 52.6705 36.4458C52.6898 35.7347 52.8791 34.7198 53.447 34.7198C53.8449 34.7198 54.0345 35.6209 53.7495 36.4088C53.7489 37.3484 54.3542 37.5788 54.7527 37.5788Z" fill="#BEBEBE"/>
</g>
<path d="M67.9413 7.48616C67.8008 7.48616 67.5996 7.48616 67.4888 7.26261C67.398 7.07916 67.4287 6.78347 67.2578 6.65133C67.4287 6.70201 67.6094 6.70201 67.7499 6.70201C68.2027 6.70201 68.6353 6.38642 68.9672 6.38642C69.186 6.38642 69.2565 6.52914 69.2565 6.67123C69.2568 7.11989 68.3641 7.48616 67.9413 7.48616ZM68.1622 8.63689C69.2062 8.63689 70.1622 7.7918 70.1622 7.04869C70.1622 6.70201 70.0008 6.4172 69.5888 6.36621C69.659 6.45793 69.6891 6.52914 69.6891 6.69206C69.6891 7.25235 68.847 7.87357 67.9315 7.87357C67.5996 7.87357 67.4989 8.10739 67.4989 8.22958C67.4989 8.51501 67.7708 8.63689 68.1622 8.63689ZM68.0821 9.06472C68.2131 10.0317 69.659 11.3354 70.0508 11.3046C70.3128 11.2822 70.4131 10.042 70.4131 9.06472C70.4131 8.50475 70.4435 8.06666 70.1517 7.96467C69.6888 8.91206 68.4745 9.10545 68.0821 9.06472Z" fill="#BEBEBE"/>
<path d="M45.4677 15.4699C45.8088 15.4699 45.7386 13.3516 46.2911 13.3516C46.4221 13.3516 46.4623 13.4841 46.4623 13.647C46.4623 14.1255 46.231 14.8285 46.231 15.215C46.231 15.4087 46.2813 15.4699 46.3718 15.4699C46.6132 15.4699 47.0351 13.1377 47.4468 13.1377C47.5774 13.1377 47.6376 13.2701 47.6376 13.4026C47.6376 13.8914 47.0252 15.2964 47.0252 15.6935C47.0252 15.7547 47.0449 15.8054 47.0955 15.8054C47.3467 15.8054 47.849 14.706 48.0094 14.1563C48.0999 13.8709 48.2205 13.7179 48.3312 13.7179C48.4315 13.7179 48.5223 13.8301 48.5223 14.0646C48.5223 14.6143 48.0195 15.9074 47.5774 16.7733C47.2363 17.4452 46.7037 18.4119 46.7037 18.9517C46.7037 19.2268 46.7531 19.5116 47.1452 19.858C46.5022 19.8173 46.2411 19.7563 46.0003 19.2474C44.925 21.4161 47.9793 21.2025 46.9344 23.1261C46.7433 22.7807 45.2367 22.4241 45.2367 20.408C45.2367 18.6669 46.7433 17.6486 46.7433 16.926C46.7433 16.7836 46.6936 16.6614 46.5629 16.5495C46.231 16.2637 46.2208 16.0302 45.9598 16.0302C45.7693 16.0302 45.5373 16.478 45.7788 16.875C45.8594 17.0075 45.9297 17.0889 45.9297 17.2111C45.9297 17.4959 45.4873 18.2592 45.1762 18.2592C44.8645 18.2592 44.624 17.4763 44.624 16.213C44.624 15.0925 44.8747 13.9629 45.1864 13.9629C45.2766 13.9629 45.3066 14.0238 45.3066 14.1056C45.3066 14.2381 45.2667 14.5023 45.2667 14.9504C45.2667 15.4289 45.3772 15.4699 45.4677 15.4699Z" fill="#BEBEBE"/>
<path d="M48.0293 18.4529C48.4518 18.4529 48.8031 18.1367 48.8031 17.4353V16.3962C48.8031 15.9991 48.8334 15.5514 49.0948 15.2352C49.0644 15.3679 49.0644 15.5103 49.0644 15.6428C49.0644 16.5187 49.5464 17.1197 49.5464 17.9645C49.5464 18.2797 49.4559 18.4532 49.2154 18.4532C48.9841 18.4532 49.0043 18.2393 48.9537 18.2393C48.9138 18.2393 48.8534 18.3715 48.8534 18.5142C48.8534 18.7281 49.004 19.0639 49.4258 19.0639C49.7878 19.0639 50.0787 18.7281 50.0787 18.3513C50.0787 17.4356 49.3755 16.4167 49.3755 15.4395C49.3755 15.0116 49.486 14.7268 49.5765 14.5023C49.5765 16.5289 51.2742 18.0052 51.2742 18.85C51.2742 19.0437 51.1337 19.1967 50.9226 19.1967C50.6916 19.1967 50.5809 19.0129 50.5809 18.8702C50.5809 18.799 50.5708 18.7788 50.5407 18.7788C50.4809 18.7788 50.2999 18.9824 50.2999 19.2477C50.2999 19.5831 50.5708 19.9911 51.0733 19.9911C51.6454 19.9911 51.9571 19.5017 51.9571 19.0639C51.9571 17.9953 49.8977 16.376 49.8977 14.6454C49.8977 14.3497 49.9474 13.8712 50.159 13.5049C48.8328 14.3699 48.4211 15.5209 48.4211 16.5289C48.4211 17.4048 48.391 17.842 47.949 17.842C47.7176 17.842 47.6575 17.6287 47.5768 17.6287C47.5167 17.6287 47.4863 17.8118 47.4863 17.8625C47.4869 18.239 47.7584 18.4529 48.0293 18.4529Z" fill="#BEBEBE"/>
<path d="M63.2499 6.98738C63.3775 6.90063 63.9438 7.03806 64.6761 6.67117C64.7663 6.62111 64.8568 6.60059 64.9372 6.60059C65.2894 6.60059 65.1989 7.00759 65.5207 7.00759C65.7714 7.00759 66.0938 6.79367 66.2849 6.79367C66.5843 6.79367 67.0166 7.75101 67.0166 8.19905C67.0166 8.71829 66.2444 9.03419 65.3296 9.03419C63.9942 9.03419 63.1895 7.85299 63.1895 7.08905C63.1898 7.02811 63.2201 7.00759 63.2499 6.98738ZM65.4403 8.28051C65.8827 8.28051 66.2144 8.07686 66.2144 7.95435C66.2144 7.91424 66.1542 7.88346 66.0232 7.88346C65.8925 7.88346 65.6312 7.87351 65.1385 7.79174C64.7157 7.72054 64.3942 7.55761 64.2736 7.55761C64.2334 7.55761 64.2132 7.57782 64.2132 7.60829C64.2132 7.87351 64.6961 8.28051 65.4403 8.28051Z" fill="#BEBEBE"/>
<path d="M48.2402 22.2912C47.9089 22.373 47.376 22.9015 47.376 23.7376C47.376 24.7348 48.431 26.2729 50.169 26.2729C51.6354 26.2729 51.9974 25.2444 51.9974 24.5513C51.9974 23.0141 51.0635 21.9346 49.8481 21.9346C49.1848 21.9346 48.5918 22.4233 48.5918 23.1459C48.5918 23.8188 49.0943 24.8265 50.2895 24.8265C50.8522 24.8265 51.1835 24.4185 51.1835 23.9515C51.1835 23.4929 50.7718 22.8621 50.1686 22.8621C49.9879 22.8621 49.8576 22.983 49.8576 23.1773C49.8576 23.4211 50.1886 23.6661 50.6009 23.6661C50.7009 23.6661 50.7816 23.6456 50.8221 23.6251C50.8417 23.6565 50.8522 23.7068 50.8522 23.7476C50.8522 23.982 50.631 24.1247 50.2895 24.1247C49.7772 24.1247 49.2848 23.7379 49.2848 23.1257C49.2848 22.7601 49.5965 22.4955 50.0484 22.4955C50.9424 22.4955 51.4746 23.2995 51.4746 24.1045C51.4746 24.8268 51.0835 25.245 50.2794 25.245C48.6718 25.2447 47.8889 23.778 48.2402 22.2912Z" fill="#BEBEBE"/>
<path d="M59.7089 28.2576C60.1909 28.2576 60.1657 28.2169 60.3166 28.2169C60.467 28.2169 60.4774 28.3086 60.4774 28.3698C60.4774 28.594 59.9847 28.8689 59.1107 28.8689C58.5983 28.8689 58.2866 28.5937 58.1965 28.2884C57.6942 28.6142 56.931 28.9096 56.1772 28.9096C54.118 28.9096 53.5956 28.0026 52.9523 27.7082C52.4599 27.484 51.7064 27.9221 50.6514 26.7306C50.7922 26.7614 50.9833 26.7714 51.1339 26.7714C52.0577 26.7714 52.5501 26.314 52.5501 25.5802C52.5501 25.4882 52.5399 25.3874 52.5298 25.296C52.8114 25.408 53.4548 25.8961 53.6057 26.7614C53.6253 26.8634 54.0371 26.9548 54.2984 26.9548C54.6604 26.9548 55.1225 26.8018 55.1927 26.2018C56.3984 26.1001 57.2126 25.3775 57.3835 24.46C57.8148 24.6027 58.3072 24.9997 58.4278 25.204C58.5986 25.1431 58.7993 25.1123 59.0303 25.1123C59.3518 25.1123 59.7138 25.1735 60.1455 25.306C60.1657 25.1735 60.1856 25.0106 60.3869 25.0106C60.6882 25.0106 60.6078 25.3467 60.7084 25.5392C60.7587 25.6412 61.0103 25.7021 61.0103 25.9061C61.0103 26.1001 60.8486 26.1716 60.7483 26.1716C60.7081 26.1716 60.6578 26.1613 60.6274 26.1514C60.4268 26.2226 60.4164 27.688 59.5727 27.688C58.9502 27.688 58.3775 27.1687 58.1259 26.5177C58.0556 26.3243 57.905 26.2018 57.7642 26.2018C57.6037 26.2018 57.5132 26.2325 57.3227 26.4465C56.7803 27.0465 55.8759 27.5658 54.7608 27.5658C54.419 27.5658 54.1478 27.5347 54.0772 27.5347C54.0367 27.5347 54.0367 27.545 54.0367 27.5549C54.0367 27.6264 54.3782 27.9016 55.1218 27.9016C56.8902 27.9016 57.3224 26.8933 57.6034 26.8933C57.6442 26.8933 57.7639 26.8933 57.8341 27.0565C58.2468 28.0334 59.1463 28.2576 59.7089 28.2576ZM58.93 26.2226C58.93 26.4468 59.111 26.6302 59.3322 26.6302C59.5534 26.6302 59.7341 26.4468 59.7341 26.2226C59.7341 25.9981 59.5534 25.8147 59.3322 25.8147C59.111 25.8147 58.93 25.9981 58.93 26.2226Z" fill="#BEBEBE"/>
<path d="M66.8863 21.141C66.7455 21.141 66.5949 21.2533 66.5949 21.5288C66.5949 21.8332 66.8262 22.0272 66.9566 22.0878C67.0272 22.1292 67.1379 22.1699 67.2474 22.1699C67.5392 22.1699 67.7708 22.0878 67.7708 21.8431C67.7705 21.5288 67.3177 21.141 66.8863 21.141ZM65.8025 21.7719C65.5914 21.7719 64.4244 23.3502 63.6725 23.3502C63.4918 23.3502 63.3408 23.0041 63.3408 22.7404C63.3408 22.5977 63.431 22.4957 63.7534 22.4239C65.481 22.0269 65.0987 20.7129 66.5743 20.7129C67.3879 20.7129 68.2936 21.2738 68.2936 22.5358C68.2936 23.88 66.4059 25.5493 66.1243 25.5493C65.893 25.5493 65.6417 25.2135 65.6417 24.9897C65.6417 24.9185 65.6721 24.8267 65.873 24.7453C66.8363 24.3579 67.3882 23.4621 67.3882 23.0035C67.3882 22.9015 67.3382 22.8007 67.2075 22.8007C67.037 22.8007 66.3056 24.4903 65.4908 24.4903C64.9272 24.4903 64.3541 23.9723 64.3541 23.7273C64.3541 23.3194 65.9835 22.5666 65.9835 21.9958C65.9832 21.7815 65.8828 21.7719 65.8025 21.7719Z" fill="#BEBEBE"/>
<path d="M45.9197 8.42377C45.9197 8.42377 45.6285 8.64732 45.2668 8.64732C44.8352 8.64732 44.4934 8.32178 44.4934 7.86348C44.4934 7.54758 44.6542 7.22205 45.0257 7.05881C45.0159 7.12006 45.0159 7.17074 45.0159 7.23199C45.0156 7.8128 45.3371 8.25027 45.9197 8.42377ZM48.0696 10.3789C47.8487 10.6431 47.6174 11.0915 47.6174 11.5495C47.6174 12.0992 47.9494 12.5572 48.4617 12.5572C48.9538 12.5572 49.1851 12.1297 49.1851 11.6922C49.1851 11.01 48.5721 10.5309 48.0696 10.3789ZM44.7345 10.7859C44.7155 10.8173 44.7042 10.8574 44.7042 10.8981C44.7042 10.9898 44.8048 11.0915 44.8947 11.0915C44.9751 11.0915 45.0254 11.0713 45.0656 11.0713C45.3064 11.0713 45.5779 11.2442 45.9697 11.2442C46.2004 11.2442 46.4719 11.1727 46.8133 11.0001C47.5367 10.6332 47.8184 9.72716 47.8184 9.57419C47.8184 9.38048 47.665 9.40598 47.5367 9.22782C47.4085 9.05028 47.4576 8.89326 47.376 8.81025C47.3296 8.76268 47.1855 8.75957 47.0041 8.73905C46.9437 8.73252 46.8633 8.72878 46.783 8.72878C46.4519 8.72878 46.0589 8.77014 45.6178 9.05494C44.7465 9.61865 44.8747 10.5517 44.7345 10.7859ZM47.0953 9.5232C47.1649 9.61927 47.3569 9.73742 47.3569 9.80863C47.3569 9.95072 47.276 10.1345 47.1155 10.1345C46.7636 10.1345 46.4826 9.59471 46.4826 9.28876C46.4826 9.09568 46.5934 9.07547 46.7437 9.07547C46.8139 9.07547 46.8443 9.08573 46.8943 9.1162C46.9845 9.16719 46.9845 9.37053 47.0953 9.5232ZM46.1706 10.7656C45.8393 10.7656 45.4776 10.3484 45.4776 9.97124C45.4776 9.76789 45.6282 9.51294 45.7387 9.51294C45.7788 9.51294 45.7991 9.54372 45.8089 9.61523C45.869 10.114 46.1909 10.3994 46.4924 10.5415C46.5225 10.5617 46.5427 10.5719 46.5427 10.5922C46.5427 10.6637 46.3516 10.7656 46.1706 10.7656ZM47.025 8.19959C47.075 8.03636 47.1152 7.83332 47.1152 7.60884C47.1152 7.12037 46.8937 6.37695 46.2108 6.37695C45.8193 6.37695 45.5374 6.69254 45.5374 7.06938C45.5374 7.87405 46.3314 8.19959 47.025 8.19959ZM44.4229 12.2724C44.4229 13.046 44.6542 13.4129 45.0659 13.4129C45.3874 13.4129 45.8193 13.1784 46.3314 12.7304C45.9399 12.8221 45.638 12.8834 45.3671 12.8834C45.0054 12.8834 44.7244 12.7406 44.4229 12.2724ZM44.7747 11.366C44.7649 11.4173 44.7649 11.468 44.7649 11.5187C44.7649 11.9972 45.0156 12.2621 45.3472 12.2621C45.5975 12.2621 45.8896 12.1095 46.1501 11.773C46.0402 11.7933 45.9092 11.8035 45.7887 11.8035C45.4175 11.8035 45.0156 11.7022 44.7747 11.366ZM47.2361 11.2236C47.0045 11.2846 46.5225 11.5697 46.5225 12.0787C46.5225 12.445 46.8035 12.6797 47.1554 12.6797C47.3364 12.6797 47.4668 12.6387 47.5472 12.5777C47.2661 12.3029 47.1655 11.9972 47.1655 11.6922C47.1655 11.478 47.1956 11.3458 47.2361 11.2236ZM47.5975 8.43372C47.5975 8.65758 47.7782 8.84134 47.9991 8.84134C48.2202 8.84134 48.4012 8.65789 48.4012 8.43372C48.4012 8.20985 48.2202 8.0261 47.9991 8.0261C47.7782 8.0261 47.5975 8.20985 47.5975 8.43372ZM48.1196 9.35001C48.1196 9.57419 48.3009 9.75763 48.5224 9.75763C48.743 9.75763 48.924 9.57419 48.924 9.35001C48.924 9.12646 48.743 8.94301 48.5224 8.94301C48.3006 8.94301 48.1196 9.12646 48.1196 9.35001Z" fill="#BEBEBE"/>
<path d="M63.7934 14.3497C63.7934 14.1463 63.9744 13.9731 64.1729 13.9731C64.3944 13.9731 64.5652 14.1463 64.5652 14.3497C64.5652 14.5838 64.3941 14.747 64.1729 14.747C63.9744 14.747 63.7934 14.5838 63.7934 14.3497ZM60.266 11.2137C60.266 11.4375 60.4473 11.621 60.6675 11.621C60.8893 11.621 61.0703 11.4375 61.0703 11.2137C61.0703 10.9901 60.889 10.8067 60.6675 10.8067C60.4473 10.8067 60.266 10.9901 60.266 11.2137ZM59.9248 12.6492C59.9248 12.9651 60.1853 13.2294 60.4973 13.2294C60.8083 13.2294 61.0703 12.9651 61.0703 12.6492C61.0703 12.3339 60.8083 12.0687 60.4973 12.0687C60.1853 12.0687 59.9248 12.3339 59.9248 12.6492ZM61.1909 11.9975C61.1909 12.3442 61.4624 12.6187 61.802 12.6187C62.1435 12.6187 62.4159 12.3442 62.4159 11.9975C62.4159 11.6515 62.1435 11.3766 61.802 11.3766C61.4624 11.3766 61.1909 11.6515 61.1909 11.9975ZM61.2415 10.6739C61.2415 10.8881 61.4124 11.0616 61.6213 11.0616C61.8324 11.0616 62.0033 10.8881 62.0033 10.6739C62.0033 10.4606 61.8321 10.2874 61.6213 10.2874C61.4124 10.2874 61.2415 10.4606 61.2415 10.6739ZM63.0592 9.69698C63.0592 9.91028 63.2301 10.0835 63.4415 10.0835C63.6526 10.0835 63.8237 9.91028 63.8237 9.69698C63.8237 9.48276 63.6526 9.30957 63.4415 9.30957C63.2301 9.30957 63.0592 9.48276 63.0592 9.69698ZM62.3052 10.9494C62.3052 11.3054 62.5966 11.6005 62.9485 11.6005C63.3007 11.6005 63.5924 11.3054 63.5924 10.9494C63.5924 10.5924 63.301 10.2977 62.9485 10.2977C62.5966 10.2977 62.3052 10.5924 62.3052 10.9494ZM61.2713 13.3317C61.2713 13.5559 61.4523 13.7387 61.6716 13.7387C61.8928 13.7387 62.0741 13.5559 62.0741 13.3317C62.0741 13.1075 61.8928 12.9244 61.6716 12.9244C61.4523 12.9244 61.2713 13.1075 61.2713 13.3317ZM62.5868 12.5168C62.5868 12.7409 62.7675 12.9244 62.9893 12.9244C63.2102 12.9244 63.3912 12.7409 63.3912 12.5168C63.3912 12.2932 63.2102 12.1098 62.9893 12.1098C62.7675 12.1098 62.5868 12.2932 62.5868 12.5168ZM62.215 13.9526C62.215 14.3394 62.5263 14.6553 62.9086 14.6553C63.2905 14.6553 63.6029 14.3394 63.6029 13.9526C63.6029 13.5658 63.2905 13.2499 62.9086 13.2499C62.5263 13.2499 62.215 13.5658 62.215 13.9526ZM63.6624 13.0867C63.6624 13.3519 63.8737 13.5658 64.1333 13.5658C64.3947 13.5658 64.6057 13.3519 64.6057 13.0867C64.6057 12.8224 64.3947 12.6085 64.1333 12.6085C63.8737 12.6085 63.6624 12.8224 63.6624 13.0867ZM63.6323 11.8038C63.6323 12.0386 63.8237 12.2319 64.0523 12.2319C64.2839 12.2319 64.475 12.0386 64.475 11.8038C64.475 11.57 64.2839 11.3766 64.0523 11.3766C63.8237 11.3766 63.6323 11.57 63.6323 11.8038Z" fill="#BEBEBE"/>
<path d="M64.6556 25.1634C64.3942 25.3674 63.7831 25.8247 62.7673 25.8247C62.2246 25.8247 61.9831 25.6516 61.9028 25.6516C61.8021 25.6516 61.6917 25.7532 61.581 25.886C61.3423 26.1714 61.0303 26.7009 61.0303 27.2808C61.0303 27.6878 61.3423 28.0945 61.9227 28.0945C63.8033 28.0945 65.2087 26.9036 65.2087 25.937C65.2087 25.3876 64.8872 25.1634 64.6556 25.1634ZM64.1331 25.0515C64.2144 24.9812 64.2334 24.8683 64.2334 24.7558V24.5217C64.2334 24.226 63.7932 24.0537 63.1897 24.0537C62.4556 24.0537 62.0635 24.3889 62.0635 24.5319V25.0002C62.0635 25.1942 62.5062 25.3876 63.0492 25.3876C63.4815 25.3876 63.8736 25.2756 64.1331 25.0515ZM64.0521 26.0595C64.1027 26.0595 64.1626 26.0896 64.1626 26.2734C64.1626 26.497 64.0625 26.792 63.7024 27.0258C63.4511 27.1996 63.1091 27.3424 62.6065 27.3514C62.6869 27.1079 62.7474 26.8527 62.7474 26.6095C62.7474 26.5277 62.7375 26.4665 62.7274 26.3751H62.8581C63.6524 26.3754 63.9944 26.0595 64.0521 26.0595Z" fill="#BEBEBE"/>
<path d="M60.216 13.6172C60.3264 14.4822 61.4729 14.0444 61.4729 15.0928C61.4729 15.2458 61.4327 15.4703 61.4327 15.6634C61.4327 15.8876 61.4523 16.081 61.6216 16.081C61.7922 16.081 61.8327 15.9591 61.8327 15.7958C61.8327 15.6326 61.7922 15.4293 61.7922 15.3173C61.7922 14.9607 62.0438 14.8795 62.195 14.8795C62.577 14.8795 62.8684 15.2766 63.4418 15.2766C63.3108 15.9283 61.9837 15.7551 61.9837 16.4681C61.9837 16.8247 62.3355 16.9055 62.5669 16.9055C62.7779 16.9055 62.8485 16.8751 62.8485 16.6922C62.8485 16.5899 62.8282 16.478 62.8282 16.4068C62.8282 16.3658 62.8586 16.325 62.9089 16.325C63.1307 16.325 64.2137 17.1602 64.2137 17.4151C64.2137 17.6489 63.0697 17.8831 62.738 17.8831C62.6374 17.8831 62.6172 17.8119 62.6172 17.7711C62.6172 17.6999 62.788 17.486 62.788 17.3641C62.788 17.2724 62.6374 17.2112 62.2349 17.2112C62.0438 17.2112 61.903 17.2317 61.903 17.3847C61.903 17.6589 62.3454 17.9953 62.3454 18.2493C62.3454 18.4533 62.2248 18.5755 61.903 18.5755C61.6315 18.5755 61.221 18.3613 61.221 18.0053C61.221 17.7201 61.5109 17.4356 61.5109 17.2622C61.5109 17.2112 61.4725 17.1297 61.352 17.1297C60.9795 17.1297 60.8792 18.1271 59.5625 18.2394C59.7736 18.046 59.954 17.8321 59.954 17.3949C59.954 17.181 59.9043 17.0075 59.9043 16.7737C59.9043 16.4681 60.0445 16.3151 60.2454 16.3151C60.6169 16.3151 60.7979 16.8443 61.04 16.8443C61.171 16.8443 61.3115 16.7227 61.3115 16.5393C61.3115 15.7654 59.8441 15.8773 59.8441 14.7878C59.8444 14.4924 59.9444 14.1259 60.216 13.6172ZM65.0079 16.6005C65.0079 16.8545 65.0889 17.1499 65.3402 17.1499C65.5513 17.1499 65.732 16.8247 65.732 16.4681C65.732 16.0607 65.6617 15.7448 65.6617 15.5816C65.6617 15.5107 65.6921 15.4802 65.732 15.4802C65.8829 15.4905 66.0234 15.9078 66.1848 15.9078C66.3658 15.9078 66.6354 15.5713 66.7456 15.5713C66.7759 15.5713 66.7858 15.6124 66.7858 15.6223C66.7858 15.7753 66.5544 16.1117 66.5544 16.2439C66.5544 16.3558 67.1376 16.376 67.1376 16.478C67.1376 16.631 66.5262 16.631 66.2351 16.7634C65.9538 16.8853 65.782 17.038 65.782 17.2419C65.782 17.4456 65.9832 17.486 66.2648 17.486C66.9361 17.486 67.4085 17.1198 67.5592 17.1198C67.5892 17.1198 67.6092 17.1396 67.6092 17.1704C67.6092 17.2724 67.2677 17.6082 67.2677 17.7612C67.2677 17.9341 67.8911 18.1371 67.881 18.2394C67.8712 18.2699 67.8307 18.2798 67.7604 18.2798C67.6494 18.2798 67.4788 18.2493 67.3478 18.2493C67.2674 18.2493 67.1972 18.2593 67.1665 18.3C67.0968 18.3818 67.1867 18.9216 67.0468 18.9216C66.9158 18.9216 66.5741 17.7201 65.8022 17.7201C65.6915 17.7201 65.6111 17.8119 65.6111 17.9645C65.6111 18.3715 66.0032 18.8398 66.3753 19.064C66.5437 19.1762 66.8256 19.2881 66.8256 19.3497C66.8256 19.4713 66.1842 19.3596 66.1842 19.563C66.1842 19.7464 66.2645 20.0219 66.2645 20.1842C66.2645 20.2352 66.2544 20.2958 66.1943 20.2958C66.0737 20.2958 65.7817 19.7362 65.6411 19.7362C65.5206 19.7362 65.2592 20.072 65.1485 20.072C65.1184 20.072 65.0984 20.0415 65.0984 20.0113C65.0984 19.7769 65.4706 19.2477 65.4706 18.7282C65.4706 18.4838 65.4402 17.9543 65.1485 17.9543C64.9073 17.9543 64.6355 18.3411 64.5149 18.7282C64.445 18.952 64.495 19.8176 64.3339 19.8176C64.1833 19.8176 64.2235 19.2375 64.0219 19.2375C63.8738 19.2375 63.5519 19.512 63.4412 19.512C63.4209 19.512 63.4007 19.5017 63.4007 19.4815C63.4007 19.3596 63.6924 18.9623 63.6924 18.8808C63.6924 18.7282 63.0289 18.708 63.0289 18.5858C63.0289 18.5142 63.2903 18.4636 63.5314 18.4225C64.0425 18.3308 64.7963 17.9543 64.7963 17.4251C64.7963 16.8346 64.2333 16.5797 63.8633 16.3353C63.6722 16.2131 63.4611 16.1117 63.4611 16.0303C63.4611 15.9485 63.7023 15.9485 63.8029 15.9485C63.9535 15.9485 64.1026 15.9382 64.1026 15.8164C64.1026 15.7243 64.0824 15.5415 64.0824 15.3988C64.0824 15.2968 64.0922 15.2153 64.133 15.2153C64.2836 15.2153 64.4947 15.7141 64.5956 15.7141C64.7561 15.7141 64.9773 15.3067 65.1285 15.3067C65.1782 15.3067 65.1988 15.3375 65.1988 15.4289C65.1994 15.8058 65.0079 16.2333 65.0079 16.6005Z" fill="#BEBEBE"/>
<path d="M60.5073 19.4196C60.9699 19.4808 61.0807 19.6434 61.0807 19.7762C61.0807 20.0004 60.8794 20.0713 60.688 20.0713C60.5478 20.0713 60.3867 20.0408 60.2158 20.0408C59.9943 20.0408 59.7737 20.0918 59.5931 20.3057C59.7234 20.3259 59.9146 20.4179 59.9146 20.6219C59.9146 21.2124 58.2972 20.723 58.2972 22.2409C58.2972 23.0449 59.1212 23.9211 60.3665 23.9211C61.0104 23.9211 61.4224 23.7072 61.4224 23.4622C61.4224 23.2691 61.081 23.401 61.081 23.238C61.081 23.1668 61.2015 23.0341 61.2015 22.9215C61.2015 22.8724 61.1613 22.78 61.081 22.78C60.8993 22.78 60.5576 23.0745 59.8643 23.0745C59.3215 23.0745 58.789 22.7598 58.789 22.3317C58.789 22.2403 58.8295 22.189 58.8896 22.189C58.95 22.189 59.0301 22.23 59.1007 22.23C59.1611 22.23 59.1709 22.189 59.1709 22.0774C59.1709 21.9651 59.1709 21.6492 59.3614 21.6492C59.5529 21.6492 59.9146 22.3622 61.3018 22.3622C61.7623 22.3622 62.6572 22.2711 62.9892 21.9651C62.979 23.0854 62.1139 24.5616 60.3063 24.5616C58.4276 24.5616 57.4229 23.0341 57.4229 21.6287C57.4229 20.0713 58.6782 18.6562 60.3968 18.6562C60.8383 18.6562 61.211 18.8086 61.211 19.0023C61.2107 19.2675 60.5573 19.1043 60.5073 19.4196ZM63.592 19.96C63.6623 20.0713 63.6926 20.1835 63.6926 20.2852C63.6926 20.5706 63.5015 20.8352 63.5015 21.1309C63.5015 21.4667 63.7531 21.7412 64.1332 21.7412C64.5452 21.7412 64.8268 21.4061 64.8268 21.0084C64.8268 20.4686 64.3442 20.0106 63.592 19.96ZM60.2658 20.6113C60.3658 20.7127 60.3965 20.8147 60.3965 20.9167C60.3965 21.0693 60.3263 21.2326 60.3263 21.4058C60.3263 21.6492 60.5073 21.8634 60.768 21.8634C61.05 21.8634 61.2414 21.6389 61.2414 21.3753C61.2414 20.9882 60.8481 20.6113 60.2658 20.6113ZM61.6013 18.8801C62.6569 19.0838 63.23 19.8884 63.23 20.6421C63.23 21.1617 62.9085 21.6393 62.3452 21.6393C61.8323 21.6393 61.4623 21.2832 61.4623 20.713C61.4623 20.2855 61.7918 19.8375 61.7918 19.3994C61.7918 19.2265 61.7418 19.0533 61.6013 18.8801ZM62.124 20.2345C62.124 20.3769 62.2247 20.4891 62.3655 20.4891C62.5259 20.4891 62.6269 20.3464 62.6269 20.1835C62.6269 19.9699 62.4357 19.6745 62.2547 19.6745C62.174 19.6745 62.2044 19.7967 62.1845 19.9292C62.174 20.0305 62.124 20.1527 62.124 20.2345Z" fill="#BEBEBE"/>
<path d="M51.0338 9.75771C51.3753 9.75771 51.7668 7.88408 51.7668 7.56818C51.7668 7.48672 51.737 7.42547 51.6667 7.42547C51.355 7.42547 50.9234 9.20769 50.9234 9.60505C50.9231 9.67625 50.943 9.75771 51.0338 9.75771ZM53.4952 10.3177C53.7458 10.3177 54.0272 9.33983 54.0272 8.72886C54.0272 8.59641 54.0072 8.45432 53.9465 8.45432C53.7354 8.45432 53.3838 9.46233 53.3838 10.012C53.3841 10.226 53.4347 10.3177 53.4952 10.3177ZM51.8566 9.41134C51.9671 9.41134 52.1079 9.28853 52.3699 8.99408C52.3895 8.86163 52.3895 8.73912 52.3895 8.58646C52.3895 8.38311 52.3092 8.15894 52.1889 8.15894C51.887 8.15894 51.7367 8.97356 51.7367 9.18779C51.737 9.30936 51.7968 9.41134 51.8566 9.41134ZM53.2335 8.99408C53.2335 8.82058 53.193 8.77985 53.1531 8.77985C53.0525 8.77985 52.9424 8.90236 52.7816 9.17722C52.8015 9.5438 52.862 9.70672 52.9623 9.70672C53.0727 9.70672 53.2335 9.35009 53.2335 8.99408ZM54.0072 7.79236C54.6705 7.79236 54.9714 8.37285 54.9714 9.02455C54.9714 9.30936 54.8917 9.72724 54.761 9.72724C54.6303 9.72724 54.6505 9.4928 54.6303 9.27889C54.6104 9.00403 54.5597 8.94309 54.4692 8.94309C54.2983 8.94309 54.1882 9.35009 54.1882 9.72724C54.1882 9.96106 54.2284 10.226 54.4088 10.226C54.5094 10.226 54.5999 10.175 54.6604 10.114C54.6202 10.582 54.2781 10.9899 53.7961 10.9899C52.912 10.9899 52.5804 9.94085 52.4803 9.32988C51.9478 9.90011 51.4557 10.3177 50.5712 10.3177C49.7478 10.3177 49.376 9.70672 49.376 9.12653C49.376 8.95304 49.4361 8.50531 49.6475 8.50531C49.8984 8.50531 49.6775 9.33983 50.1696 9.33983C50.2905 9.33983 50.5108 9.23785 50.632 8.90236C50.7022 8.69839 50.7424 8.4851 50.7424 8.30134C50.7424 8.02617 50.6823 7.85361 50.4813 7.85361C50.3101 7.85361 50.0991 7.98544 50.0288 8.05695C50.2703 7.3238 50.8528 6.94727 51.4949 6.94727C52.2895 6.94727 52.711 7.6599 52.711 8.45432C52.711 8.56594 52.7009 8.68813 52.6807 8.80038C53.0224 8.23014 53.4952 7.79236 54.0072 7.79236Z" fill="#BEBEBE"/>
<path d="M52.1284 10.5312C51.6965 10.5312 51.6765 11.0617 51.6765 12.13C51.3547 11.4276 50.8227 10.674 50.1997 10.674C49.7778 10.674 49.6174 10.9594 49.6174 11.4578C49.6174 11.5598 49.6272 11.7128 49.6474 11.8039C49.6978 11.6313 49.8585 11.5598 50.0592 11.5598C50.4917 11.5598 51.0139 11.8956 51.3553 12.3542C50.9639 12.283 50.5819 12.2115 50.2607 12.2115C50.0595 12.2115 49.8788 12.232 49.7281 12.3032C49.4367 12.4354 49.0449 12.8734 49.0449 13.5354C49.0449 13.6374 49.055 13.749 49.0753 13.8712C49.4269 13.0768 50.361 12.7205 50.9639 12.7205C51.0847 12.7205 51.1746 12.7307 51.2452 12.741C50.9335 13.0258 50.8635 13.5248 50.843 13.8609C50.8335 14.0239 50.7727 14.0344 50.662 14.0344C50.662 14.3699 50.9237 14.8693 50.9237 15.1236C50.9237 15.2153 50.8734 15.2968 50.8234 15.3173C50.8234 15.7654 51.2648 16.0912 51.2648 16.376C51.2648 16.4472 51.2452 16.5085 51.2145 16.5392C51.2452 16.7227 51.7311 17.0308 51.794 17.1853C51.8713 17.3731 51.9582 17.4049 52.0085 17.4049C52.1793 17.4049 52.4499 17.2009 52.4499 17.0174C52.4499 16.9565 52.3996 16.8853 52.36 16.8545C52.1689 16.7124 52.0683 16.4068 51.9879 16.2034C51.9174 16.2034 51.8265 16.1733 51.7946 16.0533C51.7397 15.8425 51.737 15.4498 51.6566 15.2153C51.5259 15.1849 51.4655 15.1339 51.4655 14.859C51.4655 14.7266 51.5461 14.207 51.5461 14.0236C51.486 14.0236 51.4056 13.9828 51.4056 13.8606C51.4056 13.5351 51.7275 13.2804 51.8173 12.8632C52.3901 13.2904 52.5303 13.7282 52.5303 14.1156C52.5303 14.3186 52.5002 14.5123 52.4601 14.6961C52.8822 14.4819 53.5151 14.1663 53.5151 13.5248C53.5151 13.1477 53.3442 12.7304 52.2088 12.5675C52.5604 12.435 53.0028 12.3641 53.3743 12.3641C54.0176 12.3641 54.3891 12.5675 54.4692 13.0255C54.5999 12.8221 54.7005 12.5877 54.7005 12.3741C54.7005 11.8748 54.2882 11.5495 53.766 11.5495C53.1531 11.5495 52.6107 11.8748 52.0278 12.2724C52.2898 11.7227 52.4696 11.3969 52.7917 11.3969C52.8417 11.3969 52.892 11.4071 52.9423 11.4174C52.8218 10.9697 52.3699 10.5312 52.1284 10.5312Z" fill="#BEBEBE"/>
<path d="M69.055 17.8721C69.5581 17.8721 69.96 18.5337 69.96 19.3079C69.96 20.1325 69.5778 21.0289 68.8964 21.6392C68.8863 20.2649 67.2266 20.7027 67.2266 19.7053C67.2266 19.2778 67.5287 18.9923 67.8908 18.9923C68.2126 18.9923 68.4638 19.0841 68.6448 19.2678C68.4638 19.0943 68.3733 18.8496 68.3733 18.6158C68.3733 18.2281 68.6148 17.8721 69.055 17.8721Z" fill="#BEBEBE"/>
<path d="M60.0853 8.19995C60.347 8.4546 60.5774 8.56622 60.859 8.56622C60.9701 8.56622 61.1011 8.53606 61.1716 8.53606C61.2621 8.53606 61.3219 8.57648 61.3219 8.64768C61.3219 8.75993 61.2213 8.94337 61.1011 9.04535C61.2213 9.09603 61.3523 9.11656 61.4931 9.11656C62.0638 9.11656 62.7172 8.74966 62.7172 7.83368C62.8384 7.99598 62.9086 8.3324 62.9086 8.48538C62.9086 9.59507 62.1039 10.0226 61.3621 10.0226C60.8796 10.0226 60.6378 9.85935 60.5771 9.85935C60.3866 9.85935 60.3967 10.2468 60.266 10.2365C60.0347 10.1958 59.8242 9.67653 59.8242 9.12682C59.8245 8.80066 59.9049 8.4546 60.0853 8.19995ZM61.6017 7.45653C61.5214 7.32408 61.2213 7.25319 61.0811 7.25319C60.6381 7.25319 60.3366 7.56846 60.2764 7.85389C60.2362 7.75191 60.2062 7.62972 60.2062 7.50752C60.2062 7.05948 60.5077 6.50977 61.2422 6.50977C61.8834 6.50977 62.1346 6.85582 62.2254 6.85582C62.3257 6.85582 62.4264 6.75384 62.5071 6.75384C62.6175 6.75384 62.6175 6.92703 62.6175 7.04953C62.6175 7.45653 62.4362 8.15922 61.984 8.41387C61.9033 8.24068 61.7425 8.04698 61.483 7.92509C61.4128 7.89462 61.3827 7.83368 61.3827 7.77243C61.3824 7.66019 61.4827 7.51747 61.6017 7.45653Z" fill="#BEBEBE"/>
<path d="M53.103 5.23686C53.103 5.59318 54.3587 7.33436 54.6002 7.33436C54.8014 7.33436 54.9517 6.97804 54.9517 6.67209C54.9517 6.59125 54.9315 6.5101 54.8919 6.44853C54.7109 6.19389 53.435 5.17561 53.1534 5.17561C53.123 5.17561 53.103 5.20639 53.103 5.23686ZM45.7187 4.18811C45.7187 4.39208 44.9554 5.07394 44.6845 5.07394C44.5842 5.07394 44.5535 4.95205 44.5535 4.84012C44.5535 4.63678 44.6441 4.35135 44.7548 4.25931C44.8849 4.13712 45.1864 4.0768 45.4175 4.0768C45.558 4.0768 45.7187 4.10665 45.7187 4.18811ZM54.8919 4.77887C54.8919 4.16759 53.262 3.0579 53.2439 2.5797C53.242 2.53586 53.2656 2.49233 53.3022 2.45346C53.5813 2.15498 54.7407 1.93733 54.7407 1.68299C54.7407 1.55116 54.4992 1.55116 54.3787 1.55116C53.4445 1.55116 52.0781 1.89722 52.0781 2.23302C52.0781 2.5797 53.3037 3.42479 53.3037 3.84236C53.3037 3.9543 53.2334 3.99503 53.1227 3.99503C52.7815 3.99503 52.0379 3.57715 51.6863 3.57715C51.5256 3.57715 51.4648 3.68908 51.4648 3.85262C51.4648 4.34109 52.0376 5.26764 52.0376 5.54188C52.0376 5.57266 52.0275 5.61339 51.9873 5.61339C51.8063 5.61339 50.9531 4.59573 50.6512 4.59573C50.5411 4.59573 50.5307 4.74809 50.5307 4.97226V5.31832C50.5307 5.55245 50.5205 5.69516 50.4107 5.69516C50.1487 5.69516 50.0284 4.95205 49.7775 4.95205C49.5161 4.95205 49.4658 6.27535 49.2152 6.27535C48.9234 6.27535 49.1747 4.81929 48.8933 4.81929C48.5819 4.81929 48.2301 5.78689 48.0089 5.78689C47.9288 5.78689 47.9089 5.70511 47.9089 5.63391C47.9089 5.33884 48.0791 4.86033 48.0791 4.57552C48.0791 4.4325 48.0389 4.35135 47.919 4.35135C47.607 4.35135 46.9241 4.86033 46.663 4.86033C46.6228 4.86033 46.5725 4.84012 46.5725 4.79908C46.5725 4.55531 47.6674 3.78111 47.6674 3.43505C47.6674 3.09863 46.1599 3.32312 46.1599 2.93571C46.1599 2.61017 47.2358 2.27406 47.2358 1.93795C47.2358 1.64257 45.9595 1.51074 45.4675 1.51074C44.8744 1.51074 44.5532 1.58132 44.5532 1.75451C44.5532 2.01941 45.8997 2.10119 45.8997 2.335C45.8997 2.55918 44.5029 3.15989 44.5029 3.50594C44.5029 3.81158 46.4719 3.52615 46.4719 3.84236C46.4719 4.18811 44.7545 5.68459 44.7545 6.18362C44.7545 6.29587 44.8349 6.34686 44.945 6.34686C45.4675 6.34686 46.8231 5.33884 47.1953 5.33884C47.326 5.33884 47.3361 5.50146 47.3361 5.64417C47.3361 5.90908 47.2459 6.31608 47.2459 6.61177C47.2459 6.84558 47.306 7.00851 47.5067 7.00851C47.8791 7.00851 48.2199 6.36707 48.4718 6.36707C48.793 6.36707 48.6022 8.25065 49.0845 8.25065C49.4962 8.25065 49.6667 6.21441 49.9281 6.21441C50.1895 6.21441 50.4009 6.80485 50.6417 6.80485C50.9427 6.80485 50.8022 5.77662 51.124 5.77662C51.4752 5.77662 52.48 6.99856 52.9322 6.99856C53.0727 6.99856 53.1227 6.88631 53.1227 6.7436C53.1227 6.20383 52.3796 4.98252 52.3796 4.59573C52.3796 4.49406 52.4094 4.46328 52.5198 4.46328C52.9116 4.46328 54.0575 5.01299 54.5995 5.01299C54.7818 5.01299 54.8919 4.91132 54.8919 4.77887ZM53.8467 2.76283C53.8467 2.94597 54.4796 3.34333 54.7713 3.34333C54.9419 3.34333 54.9922 3.10889 54.9922 2.86451C54.9922 2.55918 54.8622 2.54892 54.6005 2.54892C54.2688 2.54892 53.8467 2.64064 53.8467 2.76283ZM51.4857 1.72404C51.4857 1.66278 51.1844 1.60153 50.7727 1.60153C50.1196 1.60153 50.2101 2.15218 49.7079 2.15218C49.1854 2.15218 49.3155 1.58132 48.6525 1.58132C48.2506 1.58132 47.8794 1.65283 47.8794 1.74425C47.8794 1.86675 48.3512 1.81576 48.3512 2.15218C48.3512 2.50819 47.3364 2.61017 47.3364 2.82409C47.3364 2.89529 47.4165 2.92576 47.5171 2.92576C47.7386 2.92576 48.0896 2.82409 48.3411 2.82409C48.4819 2.82409 48.6126 2.85425 48.6126 2.9867C48.6126 3.24135 48.0696 3.69965 48.0696 3.90331C48.0696 3.96456 48.1196 3.98508 48.1699 3.98508C48.3712 3.98508 48.7129 3.46552 49.0342 3.46552C49.5667 3.46552 49.2155 4.61594 49.5063 4.61594C49.8076 4.61594 49.6772 3.48542 50.1091 3.48542C50.4613 3.48542 50.7221 4.26957 50.9632 4.26957C51.0237 4.26957 51.0737 4.21889 51.0737 4.14738C51.0737 3.93409 50.7724 3.49568 50.7724 3.21088C50.7724 3.03769 50.893 2.95592 51.0537 2.95592C51.2844 2.95592 51.5961 3.09863 51.7664 3.09863C51.8265 3.09863 51.887 3.07842 51.887 3.00722C51.887 2.76283 50.9936 2.49824 50.9936 2.18265C50.9939 1.86675 51.4857 1.86675 51.4857 1.72404Z" fill="#BEBEBE"/>
<path d="M69.2971 3.37343C69.2971 4.27916 68.6458 4.97158 67.4689 5.16498C67.5999 5.17493 67.7205 5.17493 67.8414 5.17493C69.2167 5.17493 69.7198 4.54406 69.7198 4.01487C69.7198 3.71918 69.5588 3.4549 69.2971 3.37343ZM67.5999 4.40135C67.5999 3.67845 65.8933 3.495 65.8933 3.33239C65.8933 3.20025 66.8462 2.97576 67.3386 2.9655C66.5851 1.98827 65.5113 2.09025 65.5113 1.91706C65.5113 1.81508 66.3154 1.61111 67.0578 1.61111C67.6806 1.61111 68.2635 1.75383 68.2635 2.23234C68.2635 2.49756 68.0524 2.77273 68.0524 3.17942C68.0524 3.40359 68.1623 3.59699 68.4546 3.59699C68.767 3.59699 68.8366 3.26119 68.8366 2.90425C68.8366 2.60949 68.7866 2.38532 68.7866 2.2426C68.7866 1.81508 69.0759 1.53027 69.4882 1.53027C69.83 1.53027 69.9106 1.68232 70.4135 1.68232C70.1417 1.84586 70.0413 2.14124 70.0413 2.28333C70.0413 2.71148 70.3135 3.00654 70.3135 3.88242C70.3135 5.49052 68.8268 6.06075 67.0075 6.06075C66.5075 6.06075 65.974 6.02002 65.4509 5.93887C65.3708 5.92861 65.3506 5.9084 65.3506 5.85741C65.3506 5.72495 66.0648 5.65344 66.0648 5.00237C66.0648 4.74741 65.9841 4.50333 65.9841 4.41192C65.9841 4.36093 66.0243 4.33015 66.0648 4.33015C66.2154 4.33015 66.5176 4.92059 67.0784 4.92059C67.2275 4.92059 67.5999 4.8696 67.5999 4.40135ZM69.2369 2.1515C69.2369 2.29359 69.3474 2.40553 69.4882 2.40553C69.629 2.40553 69.7398 2.29359 69.7398 2.1515C69.7398 2.00879 69.629 1.89654 69.4882 1.89654C69.3474 1.89654 69.2369 2.00879 69.2369 2.1515Z" fill="#BEBEBE"/>
<path d="M68.344 11.5593C68.344 11.3457 67.8108 11.3255 67.7608 10.7245C67.7503 10.6331 67.7203 10.4705 67.6095 10.4705C67.4288 10.4705 67.5693 11.0304 67.3684 11.0304C66.9064 11.0304 66.7557 10.1138 66.5849 10.1138C66.5444 10.1138 66.4965 10.1443 66.4965 10.2665C66.4965 10.3787 66.5168 10.4499 66.5168 10.5818C66.5168 10.7145 66.4861 10.8063 66.3658 10.8063C66.0943 10.8063 65.8529 10.1645 65.6216 10.1645C65.5712 10.1645 65.5212 10.1953 65.5212 10.2463C65.5212 10.3685 65.7219 10.592 65.7219 10.7043C65.7219 10.949 65.0684 10.8162 65.0684 11.0202C65.0684 11.1119 65.1586 11.1421 65.2795 11.1421C65.4909 11.1421 65.8228 11.051 65.9937 11.051C66.0943 11.051 66.2449 11.0712 66.2449 11.203C66.2449 11.3457 65.8829 11.5289 65.8829 11.6613C65.8829 11.7226 65.9431 11.7527 65.9934 11.7527C66.2649 11.7527 66.7453 11.2745 67.0871 11.2745C67.1472 11.2745 67.2978 11.305 67.2978 11.3967C67.2978 11.5289 66.9564 11.7627 66.9564 11.9564C66.9564 12.0074 66.9871 12.0683 67.0472 12.0683C67.227 12.0683 67.4684 11.5901 67.8105 11.5901C67.9412 11.5901 68.1323 11.6411 68.2332 11.6411C68.3139 11.6411 68.344 11.5901 68.344 11.5593ZM68.6054 16.4977C68.7664 15.9891 68.9677 15.6321 69.2968 15.0824C68.9677 14.9098 68.0924 14.5426 68.0924 13.9419C68.0924 13.2392 68.9566 12.6895 69.1358 12.6895C69.2165 12.6895 69.2364 12.761 69.2364 12.8935C69.2364 13.2598 69.0655 13.8502 69.0655 14.1661C69.0655 14.4509 69.2465 14.7264 69.4073 14.7264C69.5782 14.7264 70.0506 14.1154 70.0506 13.5144C70.0506 12.4349 69.1155 12.1093 68.8262 12.1093C68.5547 12.1093 68.062 12.5571 66.9061 12.5571C64.7466 12.5571 64.2539 10.389 64.2539 9.44162C64.2539 9.40089 64.2634 9.39062 64.2735 9.39062C64.3239 9.39062 64.5355 9.65584 65.2187 9.65584C65.5706 9.65584 65.8924 9.56381 66.4054 9.56381C67.6089 9.56381 68.1421 10.4095 68.8864 11.4881C69.3364 11.7729 70.4126 12.2315 70.4126 13.5247C70.4126 14.6651 69.2162 15.2963 68.9266 16.5183C69.3867 16.4676 69.6585 15.6321 70.131 15.6321C70.3724 15.6321 70.4829 15.8258 70.4829 16.1318C70.4829 16.5792 70.2313 17.2517 69.7487 17.669C69.7586 17.6283 69.7586 17.577 69.7586 17.516C69.7586 17.2312 69.6484 16.8242 69.326 16.8242C68.8256 16.8242 68.6649 17.3739 68.3835 17.8316C68.0918 16.7934 67.6997 15.8563 66.9966 15.2861C66.2851 14.7059 65.058 15.0212 65.058 13.9625C65.058 13.677 65.2393 13.27 65.2393 12.9442C65.2393 12.8322 65.2191 12.7303 65.1583 12.6488C66.1238 13.0157 65.7817 13.6668 66.3756 14.339C66.7453 14.7671 67.7706 15.1741 68.3636 16.9355C68.3734 16.8848 68.3835 16.7527 68.3835 16.661C68.3835 15.1539 66.4152 13.677 66.2443 13.0661C67.3877 13.1985 67.5887 13.4839 68.1317 15.0112C68.243 15.3271 68.6054 16.1113 68.6054 16.4977Z" fill="#BEBEBE"/>
<path d="M63.1093 5.72515C62.4052 5.72515 61.9429 5.36914 61.9429 5.18539C61.9429 5.09366 62.003 5.03303 62.084 5.03303C62.3049 5.03303 62.7874 5.37878 62.9479 5.37878C62.9887 5.37878 63.0185 5.35888 63.0185 5.29763C63.0185 5.11418 62.8476 4.80886 62.8476 4.6565C62.8476 4.61546 62.8779 4.5853 62.9381 4.5853C63.2093 4.5853 63.6115 4.69724 63.8232 4.69724C63.8934 4.69724 63.9133 4.6565 63.9133 4.61546C63.9133 4.3916 63.2596 3.95382 63.2596 3.82136C63.2596 3.69917 64.072 3.51541 64.072 3.32264C64.072 3.11867 62.9675 3.26139 62.9675 3.06768C62.9675 2.92528 63.1789 2.68089 63.1789 2.56896C63.1789 2.51797 63.1384 2.49776 63.0685 2.49776C62.978 2.49776 62.4954 2.69115 62.2941 2.69115C62.1938 2.69115 62.0729 2.67094 62.0729 2.52792C62.0729 2.29379 62.465 2.03945 63.0786 2.03945C64.0716 2.03945 64.6653 2.73188 64.6653 3.89256C64.6659 5.35888 63.6523 5.72515 63.1093 5.72515ZM61.1507 3.79089C61.1507 3.67865 60.7581 3.46504 60.7581 3.34285C60.7581 3.32264 60.7777 3.31238 60.8081 3.31238C60.9191 3.31238 61.1102 3.35311 61.2615 3.35311C61.3922 3.35311 61.4121 2.78287 61.5109 2.78287C61.5812 2.78287 61.7014 3.32264 61.8128 3.32264C61.9432 3.32264 62.1843 3.16966 62.2849 3.16966C62.3049 3.16966 62.3251 3.17961 62.3251 3.20045C62.3251 3.27165 62.0739 3.54619 62.0739 3.62766C62.0739 3.71938 62.6371 3.83162 62.6371 3.91308C62.6371 4.01507 62.0637 4.00481 62.0637 4.09653C62.0637 4.16711 62.2751 4.45254 62.2751 4.54426C62.2751 4.56478 62.2647 4.57504 62.2447 4.57504C62.1641 4.57504 61.8527 4.43202 61.7622 4.43202C61.6514 4.43202 61.4726 4.84959 61.3821 4.84959C61.352 4.84959 61.3321 4.80886 61.3321 4.75787L61.3118 4.35087C61.3118 4.31013 61.2922 4.26909 61.2416 4.26909C61.1207 4.26909 60.8894 4.25883 60.8185 4.25883C60.7682 4.25883 60.7482 4.24888 60.7482 4.22836C60.7479 4.1469 61.1507 3.86209 61.1507 3.79089ZM60.8584 5.45993C61.0197 5.45993 61.0498 5.85761 61.0805 6.09142C61.1004 6.21392 61.1207 6.22387 61.171 6.22387C61.2919 6.22387 61.4824 5.75562 61.6115 5.75562C61.802 5.75562 62.3153 6.29539 63.1697 6.29539C64.3846 6.29539 65.5307 5.42946 65.5307 3.90282C65.5307 2.42624 64.5045 1.56063 63.089 1.56063C62.4159 1.56063 61.9226 1.89674 61.6612 1.89674C61.5026 1.907 61.2615 1.5 61.1403 1.5C61.0903 1.5 61.04 1.60105 61.04 1.77455C61.04 1.88679 61.04 2.2428 60.9191 2.2428C60.6774 2.2428 59.7435 1.54073 59.7435 1.79476C59.7435 2.02919 60.3657 2.74214 60.3657 2.92528C60.3657 3.10841 59.7533 3.28191 59.7533 3.40379C59.7533 3.62766 60.4062 3.66839 60.4062 3.95382C60.4062 4.23862 59.7227 4.4628 59.7227 4.67671C59.7227 4.84959 60.4062 4.72771 60.4062 4.94131C60.4062 5.15492 59.904 5.86787 59.904 6.0709C59.904 6.1222 59.9138 6.1222 59.9537 6.1222C60.1448 6.1222 60.7176 5.45993 60.8584 5.45993Z" fill="#BEBEBE"/>
<path d="M56.3075 23.34C56.3075 23.4317 56.2772 23.5337 56.1968 23.635C56.0869 23.4317 55.7749 23.3297 55.6341 23.33C54.5993 23.33 54.9911 24.8473 53.8861 24.8473C53.4241 24.8473 53.3836 24.7861 53.2133 24.7861C53.1427 24.7861 53.1025 24.8169 53.1025 24.8778C53.1025 25.143 53.4744 25.7941 54.5092 25.7941C55.5439 25.7941 56.5388 25.153 56.5388 24.3579C56.5388 24.2255 56.5088 24.084 56.4483 23.9413C56.4885 23.88 56.5895 23.8393 56.6797 23.8393C56.8401 23.8393 56.9306 24.0234 57.0812 24.0234C57.2423 24.0234 57.3629 23.9006 57.3629 23.738C57.3629 23.6049 57.2926 23.5138 57.1724 23.4519C57.2527 23.3913 57.3129 23.2893 57.3129 23.1774C57.3129 23.0036 57.192 22.8416 56.9907 22.8416C56.9002 22.8416 56.8404 22.8727 56.7702 22.9423C56.7505 22.7601 56.6496 22.5869 56.4585 22.5869C56.3078 22.5869 56.1968 22.6985 56.1968 22.8723C56.1968 23.034 56.3075 23.1671 56.3075 23.34Z" fill="#BEBEBE"/>
<path d="M50.8019 21.4468C51.6057 21.6493 52.0076 22.0874 52.0876 22.6069C52.168 23.1056 52.2683 23.5136 52.4591 23.7166C52.7104 24.0023 53.2028 24.2554 53.635 24.2554C53.9967 24.2554 54.2876 24.1345 54.2876 23.7981C54.2876 23.4312 53.7955 22.6066 53.0721 22.6066C53.0018 22.6066 52.9113 22.6172 52.8107 22.6172C52.7202 22.6172 52.5895 22.597 52.5095 22.5254C52.349 22.3824 52.2984 21.6188 51.9971 21.1608C51.6658 20.6515 51.3041 20.5088 50.812 20.5088C50.4607 20.5088 50.0684 20.7019 50.0684 20.9873C50.0684 21.1614 50.1589 21.2833 50.8019 21.4468ZM53.605 23.7272C53.3031 23.7272 52.8512 23.4007 52.8512 23.2173C52.8512 23.0643 52.992 22.9828 53.1019 22.9828C53.3534 22.9828 53.805 23.2993 53.805 23.5639C53.8053 23.6351 53.755 23.7272 53.605 23.7272Z" fill="#BEBEBE"/>
<path d="M52.6806 15.795C52.6806 15.1433 54.2081 14.7973 54.2081 13.9926C54.2081 13.8601 54.1578 13.6263 54.0673 13.4531C54.5993 13.7482 54.9914 14.2475 54.9914 14.6545C54.9914 15.3572 54.2683 15.6831 54.2683 16.1212C54.2683 16.6302 55.0417 16.7116 55.0417 17.3428C55.0417 17.8617 54.3081 18.4627 54.3081 19.1346C54.3081 19.6539 54.6701 20.0811 55.2221 20.1526C55.0414 20.1933 54.8809 20.2238 54.71 20.2238C53.6949 20.2238 52.6503 19.379 52.6503 18.3707C52.6503 17.872 52.8613 17.4348 53.1822 17.1189C53.4642 17.3633 53.7452 17.5259 53.9262 17.5259C54.0866 17.5259 54.1575 17.4448 54.1575 17.3226C54.1578 16.9454 52.6806 16.5997 52.6806 15.795ZM55.8856 20.9371C55.5411 21.0969 55.4037 21.0695 55.4037 21.4262C55.4037 21.5583 55.3733 21.7306 55.3733 21.8226C55.3733 21.9448 55.3932 22.0163 55.5338 22.0163C55.8958 22.0163 56.4685 21.3954 56.4685 20.8656C56.4685 20.7225 56.3878 20.6625 56.2973 20.6625C56.217 20.6625 56.1271 20.8248 55.8856 20.9371ZM55.8454 20.2036C55.8454 19.7456 54.911 19.7354 54.911 19.0429C54.911 18.8694 55.0211 18.5747 55.2426 18.2585C55.3334 18.788 55.5436 19.0631 55.9964 19.2366C56.89 19.5721 57.0109 20.0811 57.0109 20.6215C57.0109 21.5381 56.378 22.6782 54.7505 22.6782C53.4442 22.6782 52.5098 21.4967 52.5098 20.499C52.5098 20.2238 52.58 19.9188 52.7509 19.9188C52.9018 19.9188 52.9518 20.0407 53.0724 20.1626C53.5249 20.6215 54.017 20.7431 54.7303 20.7431C55.3733 20.7434 55.8454 20.4788 55.8454 20.2036Z" fill="#BEBEBE"/>
<path d="M48.7309 20.4245C48.7555 20.6372 48.6054 20.829 48.3959 20.8539C48.1861 20.8788 47.9959 20.7264 47.9719 20.5141C47.9474 20.3011 48.0974 20.1086 48.3072 20.0837C48.5171 20.0589 48.7067 20.2115 48.7309 20.4245ZM46.8534 20.825C46.896 21.1726 47.216 21.4363 47.5771 21.3955C47.7075 21.3809 47.8283 21.3449 47.909 21.2939C47.9894 21.6194 48.2591 21.829 48.6235 21.7805C48.9935 21.7316 49.2451 21.4363 49.2052 21.0594C49.1948 20.9581 49.1748 20.8962 49.1451 20.825C49.1451 20.825 49.1939 20.8197 49.2307 20.8129C49.5936 20.7432 49.8381 20.4482 49.8077 20.0918C49.7678 19.7253 49.4433 19.4532 49.1055 19.4955C48.9745 19.5116 48.8536 19.5623 48.7729 19.6335C48.6821 19.3285 48.399 19.0633 48.0124 19.128C47.663 19.1867 47.432 19.4871 47.467 19.868C47.4728 19.9298 47.4869 20.0004 47.5173 20.0713C47.5173 20.0713 47.4581 20.0803 47.4173 20.0862C47.124 20.1304 46.8058 20.4295 46.8534 20.825Z" fill="#BEBEBE"/>
</g>
<defs>
<clipPath id="clip0_916_6944">
<rect width="33" height="37" fill="white" transform="translate(41.5 1.5)"/>
</clipPath>
</defs>
</svg>
