<svg width="116" height="40" viewBox="0 0 116 40" fill="none" xmlns="http://www.w3.org/2000/svg">
<path d="M24.3986 10.5762C19.234 10.5762 15.0469 14.7948 15.0469 19.9996C15.0469 25.2035 19.234 29.4231 24.3986 29.4231C29.5635 29.4231 33.751 25.2035 33.751 19.9996C33.751 14.7948 29.5638 10.5762 24.3986 10.5762ZM24.3986 28.3593C19.8165 28.3593 16.1014 24.6162 16.1014 19.9996C16.1014 15.3821 19.8162 11.6393 24.3986 11.6393C28.981 11.6393 32.6958 15.3821 32.6958 19.9996C32.6958 24.6162 28.981 28.3593 24.3986 28.3593Z" fill="#BEBEBE"/>
<path d="M31.1958 23.7942L29.838 22.1965C29.8212 22.1771 29.8014 22.1606 29.7786 22.1471C29.7092 22.1072 29.6276 22.1063 29.5603 22.1391C29.3529 22.2379 29.1023 22.2361 28.8885 22.1118C28.6982 22.0019 28.577 21.8166 28.5392 21.6153C28.4436 21.1026 28.1357 20.6338 27.6524 20.353L27.0443 19.9996L30.5015 17.9886L30.0737 17.2414L26.1886 19.5013L25.7218 19.23V18.6866L29.6065 16.4265L29.1787 15.6796L25.7218 17.6909V16.9837C25.7218 16.4213 25.4727 15.9178 25.0802 15.5784C24.9258 15.4452 24.8277 15.247 24.8277 15.0258C24.8277 14.7769 24.9514 14.5566 25.1405 14.4253C25.2023 14.383 25.2422 14.3112 25.2422 14.2305C25.2422 14.2038 25.2379 14.178 25.23 14.1541L24.536 12.1707C24.5168 12.1127 24.4626 12.0713 24.399 12.0713C24.3356 12.0713 24.2814 12.1127 24.2623 12.1707L23.5686 14.1541C23.5603 14.178 23.5561 14.2038 23.5561 14.2305C23.5561 14.3112 23.5963 14.383 23.6575 14.4253C23.8463 14.5566 23.9705 14.7769 23.9705 15.0258C23.9705 15.247 23.8728 15.4452 23.7178 15.5784C23.3249 15.9178 23.0765 16.4216 23.0765 16.9837V17.6909L19.6193 15.6796L19.1914 16.4265L23.0765 18.6866V19.2303L22.6096 19.5013L18.7246 17.2414L18.2971 17.9886L21.7542 19.9996L21.1458 20.353C20.6625 20.6338 20.3544 21.1026 20.2591 21.6153C20.2213 21.8166 20.1004 22.0019 19.9101 22.1118C19.696 22.2361 19.4457 22.2379 19.238 22.1391C19.1704 22.1066 19.0891 22.1072 19.02 22.1471C18.9968 22.1606 18.9767 22.1775 18.9606 22.1965L17.6024 23.7935C17.5626 23.8393 17.554 23.9068 17.5857 23.9632C17.6174 24.0181 17.6801 24.0448 17.7392 24.0335L19.791 23.6463C19.8157 23.6414 19.8403 23.6325 19.8629 23.6193C19.9326 23.5785 19.9734 23.5082 19.9795 23.4327C19.9981 23.2026 20.1254 22.9841 20.3391 22.8599C20.5289 22.75 20.7484 22.7359 20.9406 22.8037C21.4287 22.9768 21.9857 22.9421 22.4689 22.6604L23.0771 22.3076V26.3295H23.9328V21.8093L24.3999 21.5377L24.8667 21.8093V26.3292H25.7227V22.3072L26.3305 22.6601C26.8138 22.9418 27.3711 22.9764 27.8592 22.8034C28.0508 22.7353 28.2706 22.7494 28.4606 22.8595C28.6744 22.9838 28.8014 23.2023 28.82 23.4324C28.8258 23.5079 28.8669 23.5785 28.936 23.619C28.9588 23.6322 28.9835 23.641 29.0082 23.646L31.0597 24.0332C31.1191 24.0445 31.1815 24.0178 31.2135 23.9629C31.2442 23.9068 31.2354 23.8396 31.1958 23.7942ZM23.0762 21.3119L21.9351 21.9753C21.7116 22.1053 21.4263 22.028 21.2975 21.8031C21.1687 21.5776 21.2451 21.2901 21.4686 21.16L22.6096 20.4963L23.0765 20.7682L23.0762 21.3119ZM23.9318 16.8616C23.9318 16.6014 24.1407 16.3906 24.3987 16.3906C24.6566 16.3906 24.8658 16.6014 24.8658 16.8616V18.1886L24.399 18.4599L23.9318 18.1886V16.8616ZM24.9358 20.3116L24.399 20.6237L23.8615 20.3113V19.6863L24.399 19.3736L24.9358 19.6863V20.3116ZM27.5002 21.8034C27.3711 22.028 27.0851 22.1053 26.8619 21.9756L25.7212 21.3116V20.7685L26.188 20.4966L27.3287 21.1603C27.5523 21.2904 27.6287 21.5776 27.5002 21.8034Z" fill="#BEBEBE"/>
<path d="M86.6668 18.0855H83.5455V11.7979H80.6943V28.2015H83.5455V20.9979H86.6668V28.2015H89.5802V11.7979H86.6668V18.0855Z" fill="#BEBEBE"/>
<path d="M35.833 11.7979L38.9973 21.8562V28.2015H42.1645V21.5303L45.4448 11.7979H42.7794L40.6261 18.1886L38.6769 11.7979H35.833Z" fill="#BEBEBE"/>
<path d="M63.3314 11.7979L61.9656 19.6009L60.3818 11.7979H55.9307V28.2015H58.4831V15.8364L60.6613 26.5857H63.0451L64.977 15.6618V28.2015H67.9698V11.7979H63.3314Z" fill="#BEBEBE"/>
<path d="M98.268 11.7979H93.8589L90.8838 28.2015H93.5221L94.1531 24.3845H97.4349L98.047 28.2015H100.954L98.268 11.7979ZM94.6056 21.65L95.8188 14.3136L96.9964 21.65H94.6056Z" fill="#BEBEBE"/>
<path d="M72.2485 11.7979L69.2725 28.2015H71.9114L72.543 24.3845H75.8248L76.4368 28.2015H79.3435L76.657 11.7979H72.2485ZM72.9949 21.65L74.2081 14.3136L75.3857 21.65H72.9949Z" fill="#BEBEBE"/>
<path d="M47.4848 11.7979L44.5088 28.2015H47.148L47.7796 24.3845H51.0611L51.6735 28.2015H54.5795L51.8933 11.7979H47.4848ZM48.2315 21.65L49.4447 14.3136L50.622 21.65H48.2315Z" fill="#BEBEBE"/>
</svg>
